<mxfile host="app.diagrams.net" modified="2024-05-13T17:23:59.507Z" agent="Mozilla/5.0 (Windows NT 10.0; Win64; x64) AppleWebKit/537.36 (KHTML, like Gecko) Chrome/124.0.0.0 Safari/537.36" etag="8Ifw1akqqxvcuFXC5eCW" version="24.2.5" type="github">
  <diagram name="PÃ¡gina-1" id="x6edmYXzKHLzqeNltHMa">
    <mxGraphModel dx="2261" dy="1949" grid="1" gridSize="10" guides="1" tooltips="1" connect="1" arrows="1" fold="1" page="1" pageScale="1" pageWidth="827" pageHeight="1169" math="0" shadow="0">
      <root>
        <mxCell id="0" />
        <mxCell id="1" parent="0" />
        <mxCell id="WiYF6nhUTwwvuCqYNSRV-2" value="Blog" style="swimlane;whiteSpace=wrap;html=1;" parent="1" vertex="1">
          <mxGeometry x="350" y="100" width="640" height="600" as="geometry" />
        </mxCell>
        <mxCell id="WiYF6nhUTwwvuCqYNSRV-14" value="Login" style="rounded=1;whiteSpace=wrap;html=1;" parent="WiYF6nhUTwwvuCqYNSRV-2" vertex="1">
          <mxGeometry x="320" y="40" width="120" height="40" as="geometry" />
        </mxCell>
        <mxCell id="ecZa3-H5GdRH_xH1U8v8-1" value="Cadastro" style="rounded=1;whiteSpace=wrap;html=1;" vertex="1" parent="WiYF6nhUTwwvuCqYNSRV-2">
          <mxGeometry x="480" y="40" width="120" height="40" as="geometry" />
        </mxCell>
        <mxCell id="ecZa3-H5GdRH_xH1U8v8-2" value="" style="rounded=1;whiteSpace=wrap;html=1;" vertex="1" parent="WiYF6nhUTwwvuCqYNSRV-2">
          <mxGeometry x="60" y="130" width="540" height="170" as="geometry" />
        </mxCell>
        <mxCell id="ecZa3-H5GdRH_xH1U8v8-7" value="" style="rounded=1;whiteSpace=wrap;html=1;" vertex="1" parent="WiYF6nhUTwwvuCqYNSRV-2">
          <mxGeometry x="60" y="330" width="540" height="170" as="geometry" />
        </mxCell>
        <mxCell id="ecZa3-H5GdRH_xH1U8v8-12" value="&lt;span style=&quot;-webkit-user-drag: none; -webkit-tap-highlight-color: transparent; margin: 0px; padding: 0px; user-select: text; text-align: left; white-space: pre-wrap; background-color: rgb(255, 255, 255); font-size: 12pt; line-height: 20.925px; font-family: Aptos, Aptos_EmbeddedFont, Aptos_MSFontService, sans-serif; font-weight: bold; font-variant-ligatures: none !important;&quot; class=&quot;TextRun SCXW30483469 BCX0&quot; lang=&quot;PT-BR&quot; data-contrast=&quot;auto&quot;&gt;&lt;span style=&quot;-webkit-user-drag: none; -webkit-tap-highlight-color: transparent; margin: 0px; padding: 0px; user-select: text;&quot; class=&quot;NormalTextRun SCXW30483469 BCX0&quot;&gt;localhost:8080/feed/posts&lt;/span&gt;&lt;/span&gt;&lt;span style=&quot;-webkit-user-drag: none; -webkit-tap-highlight-color: transparent; margin: 0px; padding: 0px; user-select: text; text-align: left; white-space: pre-wrap; background-color: rgb(255, 255, 255); font-size: 12pt; line-height: 20.925px; font-family: Aptos, Aptos_EmbeddedFont, Aptos_MSFontService, sans-serif;&quot; data-ccp-props=&quot;{}&quot; class=&quot;EOP SCXW30483469 BCX0&quot;&gt;&amp;nbsp;&lt;/span&gt;" style="text;html=1;align=center;verticalAlign=middle;resizable=0;points=[];autosize=1;strokeColor=none;fillColor=none;" vertex="1" parent="WiYF6nhUTwwvuCqYNSRV-2">
          <mxGeometry x="200" y="520" width="220" height="30" as="geometry" />
        </mxCell>
        <mxCell id="ecZa3-H5GdRH_xH1U8v8-13" value="Enviar Postagem" style="rounded=1;whiteSpace=wrap;html=1;" vertex="1" parent="WiYF6nhUTwwvuCqYNSRV-2">
          <mxGeometry x="20" y="40" width="120" height="40" as="geometry" />
        </mxCell>
        <mxCell id="ecZa3-H5GdRH_xH1U8v8-21" value="" style="edgeStyle=orthogonalEdgeStyle;rounded=0;orthogonalLoop=1;jettySize=auto;html=1;" edge="1" parent="1" source="ecZa3-H5GdRH_xH1U8v8-8" target="ecZa3-H5GdRH_xH1U8v8-20">
          <mxGeometry relative="1" as="geometry" />
        </mxCell>
        <mxCell id="ecZa3-H5GdRH_xH1U8v8-8" value="Tela login" style="whiteSpace=wrap;html=1;rounded=1;" vertex="1" parent="1">
          <mxGeometry x="1030" y="130" width="120" height="60" as="geometry" />
        </mxCell>
        <mxCell id="ecZa3-H5GdRH_xH1U8v8-9" value="" style="edgeStyle=orthogonalEdgeStyle;rounded=0;orthogonalLoop=1;jettySize=auto;html=1;" edge="1" parent="1" source="ecZa3-H5GdRH_xH1U8v8-1" target="ecZa3-H5GdRH_xH1U8v8-8">
          <mxGeometry relative="1" as="geometry" />
        </mxCell>
        <mxCell id="ecZa3-H5GdRH_xH1U8v8-19" value="" style="edgeStyle=orthogonalEdgeStyle;rounded=0;orthogonalLoop=1;jettySize=auto;html=1;" edge="1" parent="1" source="ecZa3-H5GdRH_xH1U8v8-10" target="ecZa3-H5GdRH_xH1U8v8-18">
          <mxGeometry relative="1" as="geometry" />
        </mxCell>
        <mxCell id="ecZa3-H5GdRH_xH1U8v8-10" value="Tela Cadastro" style="whiteSpace=wrap;html=1;rounded=1;" vertex="1" parent="1">
          <mxGeometry x="670" y="10" width="120" height="60" as="geometry" />
        </mxCell>
        <mxCell id="ecZa3-H5GdRH_xH1U8v8-11" value="" style="edgeStyle=orthogonalEdgeStyle;rounded=0;orthogonalLoop=1;jettySize=auto;html=1;" edge="1" parent="1" source="WiYF6nhUTwwvuCqYNSRV-14" target="ecZa3-H5GdRH_xH1U8v8-10">
          <mxGeometry relative="1" as="geometry" />
        </mxCell>
        <mxCell id="ecZa3-H5GdRH_xH1U8v8-16" value="&lt;span style=&quot;-webkit-user-drag: none; -webkit-tap-highlight-color: transparent; margin: 0px; padding: 0px; user-select: text; text-align: left; white-space-collapse: preserve; background-color: rgb(255, 255, 255); font-size: 12pt; line-height: 20.925px; font-family: Aptos, Aptos_EmbeddedFont, Aptos_MSFontService, sans-serif; font-weight: bold; font-variant-ligatures: none !important;&quot; class=&quot;TextRun SCXW236859997 BCX0&quot; lang=&quot;PT-BR&quot; data-contrast=&quot;auto&quot;&gt;&lt;span style=&quot;-webkit-user-drag: none; -webkit-tap-highlight-color: transparent; margin: 0px; padding: 0px; user-select: text;&quot; class=&quot;NormalTextRun SCXW236859997 BCX0&quot;&gt;localhost:8080/feed/post&lt;/span&gt;&lt;/span&gt;&lt;span style=&quot;-webkit-user-drag: none; -webkit-tap-highlight-color: transparent; margin: 0px; padding: 0px; user-select: text; text-align: left; white-space-collapse: preserve; background-color: rgb(255, 255, 255); font-size: 12pt; line-height: 20.925px; font-family: Aptos, Aptos_EmbeddedFont, Aptos_MSFontService, sans-serif;&quot; data-ccp-props=&quot;{}&quot; class=&quot;EOP SCXW236859997 BCX0&quot;&gt;&amp;nbsp;&lt;/span&gt;" style="whiteSpace=wrap;html=1;rounded=1;" vertex="1" parent="1">
          <mxGeometry x="80" y="130" width="210" height="60" as="geometry" />
        </mxCell>
        <mxCell id="ecZa3-H5GdRH_xH1U8v8-17" value="" style="edgeStyle=orthogonalEdgeStyle;rounded=0;orthogonalLoop=1;jettySize=auto;html=1;" edge="1" parent="1" source="ecZa3-H5GdRH_xH1U8v8-13" target="ecZa3-H5GdRH_xH1U8v8-16">
          <mxGeometry relative="1" as="geometry" />
        </mxCell>
        <mxCell id="ecZa3-H5GdRH_xH1U8v8-18" value="&lt;span style=&quot;-webkit-user-drag: none; -webkit-tap-highlight-color: transparent; margin: 0px; padding: 0px; user-select: text; text-align: left; white-space-collapse: preserve; background-color: rgb(255, 255, 255); font-size: 12pt; line-height: 20.925px; font-family: Aptos, Aptos_EmbeddedFont, Aptos_MSFontService, sans-serif; font-weight: bold; font-variant-ligatures: none !important;&quot; class=&quot;TextRun SCXW184778792 BCX0&quot; lang=&quot;PT-BR&quot; data-contrast=&quot;auto&quot;&gt;&lt;span style=&quot;-webkit-user-drag: none; -webkit-tap-highlight-color: transparent; margin: 0px; padding: 0px; user-select: text;&quot; class=&quot;NormalTextRun SCXW184778792 BCX0&quot;&gt;localhost:8080/&lt;/span&gt;&lt;span style=&quot;-webkit-user-drag: none; -webkit-tap-highlight-color: transparent; margin: 0px; padding: 0px; user-select: text; background-position: 0px 100%; background-repeat: repeat-x; background-image: var(--urlSpellingErrorV2,url(&amp;quot;data:image/svg+xml;base64,PHN2ZyB4bWxucz0iaHR0cDovL3d3dy53My5vcmcvMjAwMC9zdmciIHdpZHRoPSI1IiBoZWlnaHQ9IjQiPjxnIGZpbGw9Im5vbmUiIGZpbGwtcnVsZT0iZXZlbm9kZCI+PHBhdGggc3Ryb2tlPSIjRUIwMDAwIiBkPSJNMCAzYzEuMjUgMCAxLjI1LTIgMi41LTJTMy43NSAzIDUgMyIvPjxwYXRoIGQ9Ik0wIDBoNXY0SDB6Ii8+PC9nPjwvc3ZnPg==&amp;quot;)); border-bottom: 1px solid transparent;&quot; class=&quot;NormalTextRun SpellingErrorV2Themed SCXW184778792 BCX0&quot;&gt;auth&lt;/span&gt;&lt;span style=&quot;-webkit-user-drag: none; -webkit-tap-highlight-color: transparent; margin: 0px; padding: 0px; user-select: text;&quot; class=&quot;NormalTextRun SCXW184778792 BCX0&quot;&gt;/&lt;/span&gt;&lt;span style=&quot;-webkit-user-drag: none; -webkit-tap-highlight-color: transparent; margin: 0px; padding: 0px; user-select: text; background-position: 0px 100%; background-repeat: repeat-x; background-image: var(--urlSpellingErrorV2,url(&amp;quot;data:image/svg+xml;base64,PHN2ZyB4bWxucz0iaHR0cDovL3d3dy53My5vcmcvMjAwMC9zdmciIHdpZHRoPSI1IiBoZWlnaHQ9IjQiPjxnIGZpbGw9Im5vbmUiIGZpbGwtcnVsZT0iZXZlbm9kZCI+PHBhdGggc3Ryb2tlPSIjRUIwMDAwIiBkPSJNMCAzYzEuMjUgMCAxLjI1LTIgMi41LTJTMy43NSAzIDUgMyIvPjxwYXRoIGQ9Ik0wIDBoNXY0SDB6Ii8+PC9nPjwvc3ZnPg==&amp;quot;)); border-bottom: 1px solid transparent;&quot; class=&quot;NormalTextRun SpellingErrorV2Themed SCXW184778792 BCX0&quot;&gt;signup&lt;/span&gt;&lt;/span&gt;&lt;span style=&quot;-webkit-user-drag: none; -webkit-tap-highlight-color: transparent; margin: 0px; padding: 0px; user-select: text; text-align: left; white-space-collapse: preserve; background-color: rgb(255, 255, 255); font-size: 12pt; line-height: 20.925px; font-family: Aptos, Aptos_EmbeddedFont, Aptos_MSFontService, sans-serif;&quot; data-ccp-props=&quot;{}&quot; class=&quot;EOP SCXW184778792 BCX0&quot;&gt;&amp;nbsp;&lt;/span&gt;" style="whiteSpace=wrap;html=1;rounded=1;" vertex="1" parent="1">
          <mxGeometry x="870" y="10" width="260" height="60" as="geometry" />
        </mxCell>
        <mxCell id="ecZa3-H5GdRH_xH1U8v8-20" value="&lt;span style=&quot;-webkit-user-drag: none; -webkit-tap-highlight-color: transparent; margin: 0px; padding: 0px; user-select: text; text-align: left; white-space-collapse: preserve; background-color: rgb(255, 255, 255); font-size: 12pt; line-height: 20.925px; font-family: Aptos, Aptos_EmbeddedFont, Aptos_MSFontService, sans-serif; font-weight: bold; font-variant-ligatures: none !important;&quot; class=&quot;TextRun SCXW184778792 BCX0&quot; lang=&quot;PT-BR&quot; data-contrast=&quot;auto&quot;&gt;&lt;span style=&quot;-webkit-user-drag: none; -webkit-tap-highlight-color: transparent; margin: 0px; padding: 0px; user-select: text;&quot; class=&quot;NormalTextRun SCXW184778792 BCX0&quot;&gt;localhost:8080/&lt;/span&gt;&lt;span style=&quot;-webkit-user-drag: none; -webkit-tap-highlight-color: transparent; margin: 0px; padding: 0px; user-select: text; background-position: 0px 100%; background-repeat: repeat-x; background-image: var(--urlSpellingErrorV2,url(&amp;quot;data:image/svg+xml;base64,PHN2ZyB4bWxucz0iaHR0cDovL3d3dy53My5vcmcvMjAwMC9zdmciIHdpZHRoPSI1IiBoZWlnaHQ9IjQiPjxnIGZpbGw9Im5vbmUiIGZpbGwtcnVsZT0iZXZlbm9kZCI+PHBhdGggc3Ryb2tlPSIjRUIwMDAwIiBkPSJNMCAzYzEuMjUgMCAxLjI1LTIgMi41LTJTMy43NSAzIDUgMyIvPjxwYXRoIGQ9Ik0wIDBoNXY0SDB6Ii8+PC9nPjwvc3ZnPg==&amp;quot;)); border-bottom: 1px solid transparent;&quot; class=&quot;NormalTextRun SpellingErrorV2Themed SCXW184778792 BCX0&quot;&gt;auth&lt;/span&gt;&lt;span style=&quot;-webkit-user-drag: none; -webkit-tap-highlight-color: transparent; margin: 0px; padding: 0px; user-select: text;&quot; class=&quot;NormalTextRun SCXW184778792 BCX0&quot;&gt;/&lt;/span&gt;&lt;span style=&quot;-webkit-user-drag: none; -webkit-tap-highlight-color: transparent; margin: 0px; padding: 0px; user-select: text; background-position: 0px 100%; background-repeat: repeat-x; background-image: var(--urlSpellingErrorV2,url(&amp;quot;data:image/svg+xml;base64,PHN2ZyB4bWxucz0iaHR0cDovL3d3dy53My5vcmcvMjAwMC9zdmciIHdpZHRoPSI1IiBoZWlnaHQ9IjQiPjxnIGZpbGw9Im5vbmUiIGZpbGwtcnVsZT0iZXZlbm9kZCI+PHBhdGggc3Ryb2tlPSIjRUIwMDAwIiBkPSJNMCAzYzEuMjUgMCAxLjI1LTIgMi41LTJTMy43NSAzIDUgMyIvPjxwYXRoIGQ9Ik0wIDBoNXY0SDB6Ii8+PC9nPjwvc3ZnPg==&amp;quot;)); border-bottom: 1px solid transparent;&quot; class=&quot;NormalTextRun SpellingErrorV2Themed SCXW184778792 BCX0&quot;&gt;signin&lt;/span&gt;&lt;/span&gt;&lt;span style=&quot;-webkit-user-drag: none; -webkit-tap-highlight-color: transparent; margin: 0px; padding: 0px; user-select: text; text-align: left; white-space-collapse: preserve; background-color: rgb(255, 255, 255); font-size: 12pt; line-height: 20.925px; font-family: Aptos, Aptos_EmbeddedFont, Aptos_MSFontService, sans-serif;&quot; data-ccp-props=&quot;{}&quot; class=&quot;EOP SCXW184778792 BCX0&quot;&gt;&amp;nbsp;&lt;/span&gt;" style="whiteSpace=wrap;html=1;rounded=1;" vertex="1" parent="1">
          <mxGeometry x="1200" y="130" width="240" height="60" as="geometry" />
        </mxCell>
        <mxCell id="ecZa3-H5GdRH_xH1U8v8-22" value="" style="shape=image;verticalLabelPosition=bottom;labelBackgroundColor=default;verticalAlign=top;aspect=fixed;imageAspect=0;image=data:image/png,iVBORw0KGgoAAAANSUhEUgAAASUAAADYCAYAAACtHPUEAAAAAXNSR0IArs4c6QAAAARnQU1BAACxjwv8YQUAAAAJcEhZcwAADsMAAA7DAcdvqGQAAB7CSURBVHhe7Z1/cBXluce/CaDGkAABgpUfJtgxhOSCUhHSi4BeKViDQ7UUxZZSquNtxxamM4pc7h/3zi2XqjMdqE6tY2uptSilKiPpFYyjCCggiMIkhDhKUn5ZAgRIiIhgcp9n991z9pyckx8nJ8m74fuZ2Tm77/vu793vPs+z+z4npbCwsAmEEGIJqeaXEEKsgKJECLEKihIhxCooSoQQq6AoEUKsgqJECLEKihIhxCooSoQQq6AoEUKsgqJECLEKihIhxCooSoQQq6AoEUKsgqJECLGKlG9/+9tMXUIIsYYW8ymNGDECFRUVZooQQjofum+EEKugKBFCrIKiRAixCooSIcQqKEqEEKugKBFCrIKiRAixCooSIcQqKEqEEKugKBFCrIKiRAixCooSIcQqKEptYfISrFr7OOaZyeQyD4+vXYUlk83UE2uxavEkd4K0i0mLV2HtEx0/S3oOkrEckhidLEopKHqmF74bGlIx1NS4tFYP5D8Rrv/Wj5qXhYdU5Oe79cTPJCx5bi0e/6GZjMYRXLkJnSEsji4qmHHqEp0vhLbpmNAnLOC67c8tkSMTm+cfno3ZDz9vpkhX0wWWUhO2PfgV/qbDOqDoiRRkOuUqSLL6daZOhxVNKPCJy9DFvTB8X7i+XObReSseNmXrmoADjaa+Ecyy0l5EsOaPQ02J3ISzZSipwbj53s2qYjYT8Nf9zBORROfz8cNC5FaXoTtu/UlFeUDlFmw108QuutZ9e70JRzJTkCGjQxenImP7V9j2ulvlUNGEN0S4Cu5McSYzBzXh0HZn1OHIH5tQZ8a7lQgrIcbT+oePh+rWhqwBv/XQ2hN+pGPduG0jLQ3HRQktpyXrRder61yIcXLAc4ulTK0Dp423TSMxIKMKZX9yJoA/laEqY4CUCpNvRh5247VQ3WvYXZ+LQsfiSnQ+DxGuKdnYvd6VpMh98glYM4tGBU/3WX/XYmYOkH7jwsh5BMf9MstrbiHOw5031uCtx1xJ8rf1zkm0BebfvlWL55ltcOvctlrmLSe8LTpfxHn27493HvzXCl1Gh26LKUULTohqEZ5BUi+jR/aJQC1q7tIlwl3/szp88qOH3y5EoWnXOnKj/8xnJcxeicq8heGLXy+yYmC9UzcbK3edMuWyBm+eJ3cDN94fx63RG+1WYJXbdn11OsbNNBerLHuh3FDesmc/WYm8kBWi25WHyidN3exHxAp5Ho/I9u2uB6p03QuWR1kHB3DKLxhqvdSfklIhdwDSTx7xtd+KIyeB7Kv0lkp0PoMjXJXYslknJuHmQZVYafZpfXUuZrZ6c27F8gXaFmjYtdLsqyFnJgrL3GWt3NWA3Cl+URN8FpqKxkysN8drNuYboYpAj3leePt+j1sdkfcTeb7asv0e0rawzKxfztPAmZEidonSpaKU+aMUDD0g1pK4Yf1FdepiuVtSVm+sqbo/imumLp/GjEJuX2Ls2FGJ02Y8kgs4smc7qsxUa0xafKtc1OvxiGcJ6A3yThVyC400FOaKAIRvkq2PLXfH//RIeJ7NW1ApQhGPhl2/x3LnhgWeL5MtGzhUbiy1LiKXjc3L8ZbcBK44qFCkY0CuUxMfmWd+6CbWm3slTk0x4jzlFFYa4Zp0VbbTws+BEw1mLNH5XObNFFF/xxNIWdbDYbF09rcj+M7N1m2VaPAsOIdIC23rP2vMsY2HOeahbZV5Hvu9I/J+Yp+vtlCF9aHYlXsdpefd3MZ5ey5dIErhYPa3Rot79phm323CafHDMuMFpuuaEDrvr7sxozf2peBbHRCmIyX/jSf+XBYlTCJIb67E0md2IPK2aZmGE45NEKbqFBqMcAwd2IBTMe8r1+VwrTPXpWoTumwzKmtutmy94V0rRIViPaBumqwjbmDbj+NC3B96ys9eBdxvXELnho1i5KB0dyTR+RzmoTDH5/opfhemuDVVbQebjyBiayIsNEEeFCsr87BQ1xs38B3vfMYh4ny1k47M24PoAlHyBbofDseE6k6kYPhEM+HndrGmTki9mfRQq0kD3UM78Ibt49f8wpSYICnpg8LPXocIlyWWtaKCtBAD3jE3sXGp2k/zZesNX/PPkJ0h7pouX8UpKt4UAw34ple/FXrKu5ZXOvKKzO0Z8cRXwYWzrkTnc4gOcKsgqaXlbLcMJR20lFogVoB762PznfU64hTT7Yo+5hpPM6PJppnre2nSbTGlI681AhN7oeh2U6DcnorvzgLKX3P/yyB/sd8ycl2+juII07Mb8NariQmS4xLkzPRZIsbEL9PbbCu2VDYgt9gf7Fwi43oh+564+sRu94XdfNlqsdwabXU4tODKeQFWGXX3pTC8PBkrzDECogFqjMOdobjRnTLlBrATnc89VmH3SXHcPd+NqO5vCLV0MvJwsxHXSYvvb7uF2YzIAHc0sV05c8x9cSnHfTfjraHLDLtjsu/zx4nE+cnFraEY0jw8Llaiex1d2nSbKDlv2h4UYZrl+9ZIBGmb79V+xV5x2bw65/OB5Lz2//iNP+Dp1e0XJAeNyTy5G9nGTVJXTC2gUBxDnrwrd2VjpnFHFsrD+YBaMM6rcTPP/AGoScBSil722p8NwFuh+JD/7d5C5FWuNNvkxipCb9+ctgbdlxKEl7fWfZUfmm+Vbz81eO8FyhOdL9p9EpwYzcCZZjlrURgR3Xser+1C6Ljdj7ciLMzn1+sLg+Zv32ISbaEJEW/9/NvpQ4/5+pPjXBcvxja0iBFod15xd9/ZHXXNVcnRuN9sw0xk7/LO2aUN/2KJdBn6+lzfjHX9jafus8bA5oddzoRR8S9Emf+NXyKoxRrxUCEe3WcpkUuMGAHuriKGhZYo856Y2W0ffV4q0FIipAXUxVt4oy8SVL879PlDh6ClFBeKEiHEKui+EUKsgqJECLEKihIhxCooSoQQq6AoEUKsgqJECLEKihIhxCooSoQQq6AoEUKsotUvur/44gszRQghnU+rolRV1XlJt0jLXHPNNfjHP/5hpkgy4bG1F7pvhBCroCgRQqyCokQIsQqKEiHEKihKhBCroCgRQqyCokQIsQqKEiHEKihKhBCroCgRQqyCokQIsQqKEiHEKihKhBCroCgRQqyiV3Z29n+Z8Wb069cPp0+fNlMJUng3Fs2djokTJ5phNNKqPkR1g6m3Cd3W4qtw4MNq2LB5/fv3x5kzZ8xUBxlyCxbMycURb98izstQ1G+vwHGnoaBtH5iFKd45G50WcUyypy7AA7NGRs4jFNy1AIW1lp7bKJJ6bB0KcPei+zD67HZU1JiidqLHdU7OEXwYhAOYIPH2seCuRZjcyz12XWMpHSzFihUr3OHNMxh7791yCkm3oaJzG1DqnZMXa5Fd6Ku7NxdVL5o6Hd7PwtxFkeesrq4fpt3FsxiicBT6HTyEfjfdgmxT1Cp6rBe0o/0lQudbStmjMXHgCWyvMM/UmpNIGz0G6Uf1ieo+XaabJ/LoKw4YBdXymbjqipGYNWu6Kc+J09ZV2ZlD0jBy1iy3/up6WV92uL0zHX6mu0/6Ka4VYOqcsm/K5XH5VfgXKR9qnnix2oaWMa4/0opmYdYU19JIidM2UZL6NO+bixuuAz5Wiyf3G5jSez/We9vXUI1q5+mejVvmTEPqlqfxf/7cfjUVOHBFEW41T7j0nBtw3akd2P+1Cch1zqPbLDv/BqQfStBSyrwJcx+cjX8rkmOnxy9iuAH9a3bhk1OmbRJItqVUMKkIF959E6evm4Bs3zFpEf85kUnnuOLjZlZES+Tc/hPML54U45jJkNuIfWVHcN60tYF4+5idPxGDTnalpRQPebrgTe9pvQe4vhi3DDF1yMTYrP1O3XObZEtbbCutr8/CfufJXopDI6Zh0aJREdN3e5aAuC1zR1ZhtVO3AqWYhgVTs1Gz6Tmx4g6JCbDHqXu5LH7bECNygb9r3csoj2q74pVy08hCyvY7xyRiXxwGIyvzEPbrvkdRc+IMMrMGmynlON5+X6zeO5L0pK/bj8p/xrl9Tn+C/cfMuJUUYFT/KpQfq0H5ASA3P3xE9IEZuvaE0LRjkY5FZuZYsUL9bQbjlgWL5PqVoQ1W1Gfln6Cu0UxEcB6ffSx1ZipIdLkoZU8txljoCZSJspfdm185Vo6qiCNYhz3v+m7sFttK64+2wG1djv0Hm0/3G6SnVyyBm4bj0PtvwzEMhPKPD0XdbB5taHtwB972bpbjtajLzJJLKgiU4+UVq1E1cq5z8YduiCHZ6FdXGxEnCqH71z878iaRc1J6eiyKm4lbItThg7+twZajUcJ0uhzr1pZaHafKnjoB/Q6UO9dJTYWYmCMLWhfqY2/jOXm41vkfgkLm9RPMg2419sidcrNP0GJx/mAp1pSURwmTCNKWNVjzQa2ZtovM693rzj9MG2Eq5ch1jSg5lou7cseaeM670eXG954Ki+ZibKZTGIf2tG2Z4bd5y5HhtuFiy0fdbD7a3FYvsjeBaU7bIMTMavD2c3rxlwKyj44wyZP+TEvCeromJNAe5a+U4sz1NydnfxtrI4UpAIKk12XBSKDKi27rAxO5KPBZ8e2h7qMS86BTq6vOPExbpuGAX5jsFiSl7qPVrjfhG0rFcPDo+kB3hCDNRdb73obJkyGurdmetq0hFpg/iBuxTdG0p60gloPTRsXJxgBmDFFxrCZxW4dfp7JyHLV1wzEqxtM5O19c1dpYNlQ5tnyUxKC3EaYN776NNdYLkjCkALmZmRh7r/fw0gdmZoQL1xU4wvS3t/HeRrsFqS10Y0xJ4xd14evcOblmvBntadsSrs/ftjhIe9pGYaErFyEqhXdHxDmyB/UzY2I9vS8CdduCiHidBvXnXn8GOzS2F4OaTSXY038CJvQ3BR1FhGn/zj34zHZBEpzjGv3kd2KervV4vLbOCL5SgFEhNyX5NBzdg/crgi1Ieg12oyjpE1o/DzBPmDuycCau9dOeti2jAW2Ng2hw0XPLQjdo2RbHj/cCjy22jUa/+/HaOa/UX5attgCzXeo2l3iiIvtZe1N4nxyX2gvMq7X3ojggoSe/qddgvtsiBipmZyAGwiVGlOvm4cQ8XYuzZtMO8+JFj+Uo8RpMG8Vx9aID3YT/+2Yx/G+yzoPH1l660VIihJDmUJQIIVZBUSKEWAVFiRBiFRQlQohVUJQIIVZBUSKEWAVFiRBiFRQlQohVUJQIIVZBUSKEWAVFiRBiFa12yG1sjJlrk3QBmh89uf+4QTw0/7zm6Sb2cUlmCejVq5cZI4TYBt03QohVUJQIIVZBUSKEWAVFiRBiFRQlQohVUJQIIVZBUeoIs5ZhTUkJStYsw3dMESGkYwRTlPrlY/L06Zg+OR/d+a8+P58xFrVvFqN4zlK8asoIIR0jeKKkgjQW+Kjchj/da0BttRklhCSF4InSmQps3lyB1v6LckBOIQoLw0Pe19JMDSHEZnpsTOlU9aeovWAmzh5B5WfnzEQSMLGk/P1zsHSdKSOEJIUeHOg+h6MHa3FBXKwj1adMWZJYtxRziotRMWoNls0yZYSQpNCDRUk4dxSVZVVIsiQRQjqRAIrSMIzXN28FWUDaCBTJ+PhhpooQEniYuqQD/Px3Glcqxk9WmAJCSIfp2e5bJ/ObDXuQdRs/niQkmdBSIoRYBS0lQohVUJQIIVZBUSKEWAVFiRBiFRQlQohVBFKUMvMnY7p+QCnD5PzuTF5CCEk2ARSlYcgbfBzbNm7Exu0HgRF5UkII6SkEUJQOY6eXuuRMPZLY958QYgGBjill5o9E2sFKkSlCSE8hsKKkcaWi9APYXNFaujdCSJAIpCgNu3G6I0gbd9FGIqSnETxR6pePkQPld2AB38AR0gNhh1xCiFUEOtBNCOl5UJQIIVZBUSKEWAVFiRBiFRQlQohVUJQIIVZBUSKEWAVFqau4rwl3/RbI+Fdg2p+bMEp+uwSzvqtldKL8TrzPLW4/KVj513S8sAh49Jl0bH0m2ZdOKl74uyxXhg3LU0xZYuj26TLuWX4Ftv61N+4x5SQYBFCUzJ9RmiFwf0T5LlAvP3Xy29WclhWfrjYTHaC69iucrfV9c7voMkdM3OEKrEzor8wb8f07GvDU3q/MdMd56VgjcKoRL5lpEgwCKEqHsVNzKZl8SmkF4wOdT2nUb8Vq+oVYUWLF6OBZUBm+Mh3U0nGsnl+KtaNlv3TndawvZw4zbdq3yRKbtQxrStZgWUIiYpjVGxumpeKDZxswSURl0h1fYOE6t8qxqGJYP/HK4+FYPM3aq2V1GVaG6hIVQ2IbwXffzp11cyvZzl9S8MpPXStp+w9ScNQtdRidJXVSVvohMHyCW1b/a7fMKy/4hVuOa8Ta+Z3Mf00T+r8rvxlNjiipiOm0M4/UDxc3zRErschKzfr2/zQF+xO20Jqw8HsN+P4KsUCWfIEZS1xL6Z4JvYG950NCFEKsp2KcM0J1DifGXO6KRrzyeIjozc/60rT/HJXX+tv3QR7OO3VP7QXyJriC9asHG9ztWyHzPSjWEgkUwRSlYeNd923iYBzfYxK+BZh9r7u/9cdESLLccS8WpFbPtBtMmVKfgiMqLPJb/he3SBn6deDqGcZS+ndXqFpl3VLMKZ6DpdGC0g5ysnrhxLHm3Scfze+D6gpPEBpRIqIxMCd+eTxU9PoOSzPW0JX4RrqpcLiATUYc/UJJgk0wRenwTtd92/gRMHYy8vuZ8h7EqPuaUL8hbCm1hX1iIXnWlWeVdQWDhnQsMN0aZ/d+biylSPeQ9EyC7771YLygtFpBrVFXG3b92kwSYkq/qriAvmP64FEz7aHB8Jx87/JKRfEY4KTsT7zyeGiwuu+1vZL0Bu07WLamBCVrlskYsZXgiVK/fEwOvX0rQt8Dm1FxxtT1II58AowWN0zdMch4axz9zxTU32DcNx1+aSo6mxVf4qm9Ii4mEO0FnNWdKoHndqUBpa6FE6/cCZhL2UNjeonIXRlaji6/5NTleCi0/MuaCWDbeRW7Pm0A0rMw3JQQ+2A+JXJpsehplBTV4g9zlopEERuh+0YuEYzrdhvwBgXJamgpEUKsgpYSIcQqKEqEEKugKBFCrIKiRAixCopSV9EVqUt0HbLsiPQkpkyHiHWa7bA/pUlLhNOddOz7pXi4+xad/iTcQbgz1tkCzrdcuk53v/WY90SCK0rmI8rA/RFlZ6Yu0U6/P0jBdl+fOK9sXwt9TjotpUmnooKhH1+a7ielQHHSBdHthDzpexcj0p/oB6DamTgJhyxBmnCy4asWv4QPMgEVpUzkjx2M4wdrzXSwcVKRmKG1FCUxU5oo8SyiREhGShPNsRQSCRWQcGoRfyoSv2UVM0WJWgdiqawMpTsx1smiPsj79HMna4HDigv4QC5nx6Lx53cyy9dlv/CMW/7CcvfrcXcdxhqKah9RngSx86drCVk45it2t9zsl5bJdjoW4DOy3zEstZ5Ox492NzDsRtO9pKt6nCaDOKlLrhbx0VQkTifaDSJQXveQOClK4qY0aYNFFEEnpzSJi9x086+9iKe8DrZeahEtj5eiJP1yDKxw25cc7oNCdRXzU1G5AyHhcARmQCpy1LX5ZmNo+dqlxROBnAFSXnoBOWNSsUl++2apKBlryKz3gwGXmfWacmnXUVQQw+la3GPliN7c3qg0eaicrjqe+A1LxclnxRIbJvv9nvym634J6y5ixh1f4lfOtvXcjsnBE6Vh4zGyYRt2HjbTAWeEiI/Xx+2uGaZQiZOiJG5Kk2SShJQmcVn3FSqhfdki4zEtpihpOI8SYxFprqTvr0jB13AR23Jca0mzVYbSpyzqjRwRMa+vXLEvA+DZT79y3LCzey/IjR0mbKFFp0ZJBikouhb44PWovE6zeiFP98Ec45eWfIlqEVXHImow5b79vpQImCiJ2zYyC2kjitwOuQVmfHK+1AQXtZw86+eV/zSFcUgkpYldeJbJRRSqEPhck7anKEnBwAFi+QxJdcQoJ0szDUgZGt04z+GwVaJDyMWLhVpoYxpR4rQVS6nBlJNuI2CiVIeKzSYVrg7ltTh3cBs2bg5uojcNMo9o55uv9qQ0SYhkxJSqG3HWPPnvWX55DAtEc3KHXZNEUpRUyzw509IxVQTqGw+kAe9dxEu63mG92/dWrMGImVovHbSUXKvLn5q3Cds+le27PepWW9eIE+m9URSKs12GnI7kE9eOxiUleLoHvJFL1f5t8QbS+ez/SwoyvIyR6pJ5MaI4xEtp4gXAR2eY+qjAeHR5pxNy09LxUNbFsAUSEdzVt2caIxHalaKkCSfleZqj6W7FwpnxPX0bZiyidRexKkYqlbj4tnPrXKAyFBYwnxtM6wMYt9KLTblB6zQR0z7ueloJhL+05Dw+GOC5pt5yRJSfvYi8B9yyhzTO1pHUvSsqcEh+srKDnymKHXJJIFGLZD7OMwVuCM2C8GNkbSvGTwIehwpeoJsQQa2Pyms1GZxrabTlX1F6LI7r9mN8/dM/BF6QFFpKhBCroKVECLEKihIhxCooSoQQq6AoEUKsgqLUVXRF6pKuQvfF9xdO2mFYU59oP77E/9rJ7QCr3/B0fQqUTkY7COuX6843Wq18N0WCKErDMD70v286jJeSANGZqUu6mfpad+gozVKgeL3+o4Qq3GfN/0mAP8eSr0e+h/l4M177yI82/RkEvPLo9jJ42xXxYWgM8dGvuNGIz3poR9pkEdDHUS3Kva4mG3ciyH1z1coY5UtH4qUiiZuiRPCnOvFbXE6KE1PuJG1TqyzKctHlegndYi1H6/Wr8lBdlEXklPk7DreI+7dGa/63A18ZqyDlX3Q63UaSimIv28Cz54HQv/Rq9xXT703KB02LEhntmb83uuf/BdP3TQfzhbkjSFdi4HvR5b7ly6Db5QpoZK//SaWNyJtwCX871QF6kI1sOXFSlyijs8IdbL3UJfFSlKiLBNMhVwcv5YiKyfBPwuVOoje1yrKkTkZVUFTYMmRa+85FLGeDbIMIldf9JOOGJhw0y9HUKTqftg8tX9r70dQnuj7d5tJfm8J2EycFinYlidn9QsTBS77mWCBx8Pq1CY8+oyLzBRYeMwUtof3gTp1ruTOvCuOYRmxytrUJn52SeYwQPZrfJ5y5QPfB2VYVNE/cSDwCKkpZKPDctxsD5bzFZN/r7m/9jpSQiMRLUXK0QgRiRvM+cjov9G+7Y8V0ZFn95SdTfjNl+eo6asqUg15KFBHMfXJTeaJU/2FYND0B1fnK2y04r2LpnGLM+Y/O/etH7cw6yJ+OxHP3HhDLZbURLimbWutLCheB6cPmd8VyUtFXbo/m7luY6PVqWpVNWe5X5oUVrWQnIHEJoCgdxs6Q67YNB68swPjg61IYjcvIT9wUJSaZ23YRERWsUG5tERpN2vZKhREyI1qnVWxy5PfdFPSf4JYlQv8u6cXbfjSu9FDWl5F94ExH3Ul3iFs3V2M74lp9sw/6jjHdUqaZcSdtit8d0yRv4aRwGNYbWO3WaRK2qRFdWfxWkuLGn1SMdDknv3mJd33pAAF33zLRN+0czrY126LlXH27XOC+QHFLKUocV0nEKmOIKfBQ0RL3St00pU6WNyJffsUqOp0lLpjcPHq4IlKmiACONuXx8Lef2JUxpRbQt3QqSLHdOz/+7JIylF5wczdF5d5WYRmYbnJfawqUw1+GcjrlZPUKu2NCM+vMmfcCyhzrSNb3npfZkrSXAIqS/+1bgfgUm1FxxlQFFC8VyUS5sL2YTLwUJc5rdylzrKGvi8Vk2kcExkU0tptkcfo27GoRKBUczTmVYSwxjQPBS5mi7U28Kx7+FCunxYJrqW1SMW+0HhrTy6QQMW+1pHyqWsihbJXGMol4A2ZiSC2+7fK/TdNUKqa9pkCpNW6gDJrONuSOyTo0MVzYSlIaUeJPmTIttXm2SdIm2CG3m9EAtFo3iefIJqRnEXD3jRDS06AodTMd+ycRQnoeFCVCiFVQlAghVkFRIoRYBUWJEGIVFCVCiFVQlBLC/VK5pKN/2EgIaUZARSkT+ZO9r7q7I5+S29G0+M1ajJ3xc1NGCEkGARQlFaQi9D1gQT6l6lrwr+cJSS7BE6V+QzH483LstCWz24Ah4swRQpJF8EQpoy/SkNHN7pth3VLMeRG4h7ElQpJGMGNKAwcDe1z3bdvBNIzMzzQVXcysZVhzL/BS8RwsZd5lQpJC8ESp/izOnTwQSleSmZ6Gc/WalKObOHUMnZtXkZBLi+CJ0pkKfNQw0rhu01EAi+JLhJAOE0j3ra5is3nzJsOublSknCykm1FCSHIIZkyp2zEfT96WhT0bfmPKCCHJgJknCSFWQUuJEGIVFCVCiFVQlAghVkFRIoRYBUWJEGIVFCVCiFVQlAghVkFRIoRYBUWJEGIVFCVCiFVQlAghVkFRIoRYBUWJEGIVFCVCiFVQlAghVkFRIoRYBUWJEGIVFCVCiFVQlAghVkFRIoRYBUWJEGIVFCVCiFVQlAghVkFRIoRYBUWJEGIVFCVCiFVQlAghVkFRIoRYBUWJEGIVFCVCiEUA/w81CepVLY2g1gAAAABJRU5ErkJggg==;" vertex="1" parent="1">
          <mxGeometry x="853.5" y="-216" width="293" height="216" as="geometry" />
        </mxCell>
        <mxCell id="ecZa3-H5GdRH_xH1U8v8-23" value="" style="shape=image;verticalLabelPosition=bottom;labelBackgroundColor=default;verticalAlign=top;aspect=fixed;imageAspect=0;image=data:image/png,iVBORw0KGgoAAAANSUhEUgAAARQAAADDCAYAAABDPO5aAAAAAXNSR0IArs4c6QAAAARnQU1BAACxjwv8YQUAAAAJcEhZcwAADsMAAA7DAcdvqGQAABtsSURBVHhe7Z19cFXVucafBNTSSICAsZUPE+w0hGTEWhXwIqIjRUtwqJaitLWU6th2bGE6o8jl/nHv3HqpOtOB2qllbCm1FqVUZSQdoXHUAgr4jZMY4ihJwWgJEkIgRQST+75rr33O3ifnnOScrBzOIc9vZs/Ze621v/d61vu+a+918iorK7tACCEOyLe/hBDSZygohBBnUFAIIc6goBBCnEFBIYQ4g4JCCHEGBYUQ4gwKCiHEGRQUQogzKCiEEGdQUAghzqCgEEKcQUEhhDiDgkIIcUbe17/+dQ5fQAhxQmQ8lHHjxqG+vt4kEkJIOtDlIYQ4g4JCCHEGBYUQ4gwKCiHEGRQUQogzKCiEEGdQUAghzqCgEEKcQUEhhDiDgkIIcQYFhRDiDAoKIcQZFJRYpi/D2g0P4Da76Jbb8MCGtVg23S49uAFrl07zFkhKTFu6Fhse7Ptd0nvgYjvmeNYsw0C/mw4FJQ9TVw/CNyNTPkbbHI+e8oHyB6P5X/t+97TolI/yci+fBJmGZWs24IHv2cVYjFhKBTJTVNg8VOwS5KW7XgQt0zeRTlt89diTVPRH756HeXc/apfSZ/v9CzFv0Qpst8sDFccWShd23PkZ/qrTRmDqg3koNOkqJrKrjTZPp5VdqAgIw+ilgzD2nWh+nayj69bfbdM2dgF7O21+JzjSQqqI2Cy8FC3VUoHmyVTdgksX+hVNhWgOEMz7iS8A6a4X4HuVKG2qRd+rbepMm1oGNGwb8BU9U/Sfy/NsF5oL8zBUZkcvzcfQnZ9hx7NelqG+C38X0am4Mc8sFo7qwv6dZtbQ/IcutNv500qodY7TSn7vgUjehkgrHGy1e2pZxxurwisbbuGNGR3ZTjKrQfer+1yMS+WCl1ZJmrbKpox/TOMxYmgjav9oFoA/1qJx6AhJFaZfhTK8gWciec/gjaOlqDSWTrrr+YjoXF2MNzZ5chI+p4D4dLMkVKz0nPV3A+aUAAWXLQ6vIxiXxW6vu2V2G268rAXP3+/JSbCsf09iLZ/g8a1deps9Bi/PK6tp/naixxJywfzrHng20rKucpCMxFBixSJCk4jGKMmX2eZ3RFyWdHeD0uGm/10XuZHdpt8sRqUt1zNSSX8SaJ3nrUJD2eLog6sPTBWwyeTNw6rXDtt02YO/zkNvAJfdnsAV0EpyLbDWK7upqQCXzrEPpWx7sVQGf9vzHmpAWaT11+MqQ8NDNm/ePdL6P4p75PjeOAo06r67md97cThY2dVqOHpYUoXSESg41Bwovx3Nh4DiL2glSHc9ixGdBmzbqgvTcNWoBqyy57SpqRRzeoxfbMeKRVoW6HhtlT1XS8kcVNZ621r1WgdKr45xbQKWkVb4Odhkr9c8LLQiE0KveVn0+H6Ha41ABwnfr2THL3mVtd7+engGziT6TVAKv5+H0XvFShHXZbgoRns8F0XSjlorpv0P4s6om6QxkoirlB67djWgzc6HOYnm3TvRaJd6YtrSa+WB3IR7/BZYH+5/NKK00lbrylKpvNEHfPv9K7z5P94TXWfrNjRIJU9Ex2u/wwpT2cSfr5UjGzlaKoW26uFtY+sKPC8PsFextZIXYESpyUmMrLMwUgG1Yq7C4autsF59GKus6Ez7QrEpEWTvxx12Lt31PG6bI4L8D1/cZFt3R4XOnG9fCNyb7Tsa0OFbToawZbT9Xy322ibCXvPIsco69//OCHSQ+PcrHo3Y5MdmzDPQi/t1BuBYUKKB169NFJfmfh1dsgtt4rsUJgqitnchcs+e9WIkf38nD1/rg6g0V/8PHvxTbYyoiJg8twrLV+9C+JFPTsfHpi2O0ngYHbbSjx7ZgcNx64RnpntWkeeG9Ardtp2VPXfbtlZWr/XXSr4JUNdG9pEwCBvEmOG3R1rXeWuB260bZSpbDONHFXgz6a5nuA2VJQF3SQm6iFUOa9jWZoSOJmQZCSLyqxrKsFj3mzBIm+h+JiB0v5LhWW4DAceCEgjK3h2NgbR/nIexU+xCkBvEivlY8u2ij1orGpQd3YeenHefCYpKemKiFIyKtnmGkJkfr9VRMVmMEf+wFdC6IanTfdtaWVv+FWnfxcXR7auwxMRX4qDByYKm5yOtq2fxFKBsqq1aoZZWxRJmX+muZ4gNxqqYqIVjjlum6j5aKEmIF4w1PTGyXyMscV2V2Guu8SM7S3pFRmIozc90AlMGYeoNNkG5IR/fnAvUPeMNul++NGiReG5SXzGi8shmPP90emJizGjx06MWgDWLa7WKbMe2BvHbq4KBuWUyrw9hoKXTljLlh7L7ttVSuDa2tTckcX/84KDMeudSGd2ezFWW2MqvwVRcihsjcZIbZckLtqa7nnetoi6HYlykQMxFXcYIamEMLcNVVhinLb2995ZdN8LB2Fjiuz/2mgfiMMbltfOkd2REUEyPzp0iKnMD75KImOwIdP/Wvy1ujp9nupjddA2/+/ff4+F1qYuJQWMQD72BYutaqPuilkfEb5cWb9VrxZhjTfjF0ijuVcvBdJ/adRaOQEsaFkrstjf8ZASej8RDgr1Ii1HWsMoek43x+L08pqxFz6Ua0e1t8Lp7I+utDZynBpr9oG6668W6HIKJSYycY7ezAZWhaNajeOY1RK7b7Xg+ZNk9ukkDm917eeISaxkJod6l4HEG0Gu+6dClnlsU5xhIz/BvNEi/oF2s2gPji2/mUJdTYz4Lo25a2qhwV6I22LNEkpIZC4UMMOIEYzNFHMsoXW57cM5peyEvV6GFQohF3aLFlwV6qY6+EekiJ72DgkIIcQZdHkKIMygohBBnUFAIIc6goBBCnEFBIYQ4g4JCCHEGBYUQ4gwKCiHEGRQUQogzQm/KfvLJJyaREELSISQojY39N+ANSc6FF16If/7zn3aJuITXNnPQ5SGEOIOCQghxBgWFEOIMCgohxBkUFEKIMygohBBnUFAIIc6goBBCnEFBIYQ4g4JCCHEGBYUQ4gwKCiHEGRQUQogzKCiEEGcMKi4u/m+dGTZsGNra2kxi2lTejCULZmHKlCl2moghjW+iqcPmZxN6rFVfwN43m5ANhzd8+HAcOXLELvWR86/BovmlaPbPLXRfRuPoznocNAUFLXvHXFzt37OJQ0LXpHjGItwxd3x4HaHipkWobM3SexuD02trqMDNS76Nicd2or7FJqWIXtf5Jc14MxcuYAq4t1D21WDlypXe9NwRTLr1Zrn85LShgnEdUOPfk8dbUVwZyLu1FI2P2zydXinCgiXhe9bePgwzb+JdjFA5AcP27cewK65BsU3qEb3Wi1Ion6O4HWBJW8Iv78HKp+psQjGuWVQF/G0NXjigqj4TY21O+1vrsOZFlXdNn4zWt0R8Lhlr089LUFZbxiWY3LobRy6Z5OWrgD2FaHmz7O/fawkWXFLoLdi8UJqw/7mVeLI2flnFpBc1YvfwSZhUuF8q55M4mKBsujgdBEgf3tlA9ZoX0NLtnvjovVmAole8cw+i51uFanPNvfldaBw/2d5Hr4xaKMUvRZdTovAKLFh4JYrjNmcnsOeZh7F5r110gOsBlrxzrwZm+8+2zUhG8J7IYvAa95aSG36EuWXn2KUYDryMNY+/gna7eLrIXAxFVB1Scb1WcjdwSRWuOd/moRCTiuShlzxzgZOWldKXFGGPaVFrsH/cTCxZMiG0fLPfAktlWjC+EetM3krUYCYWzShGy4trxHraL0q12+SZCpWgbIRxpfLwaN6TqIsp21cx6Vdq95hrEjoXw3koEnHcEyMmSsvHR1BYdJ5dUg7ihVdE8Gc7amHb96DhXyfsQgxt72FPOiKVMSowYXgj6g60oE5Er7Q8ekW0sYs8e0Jk2ViCk1BYOEmsv2CZ80TUl8jzK1MvrJeP6t5De6ddCHECH70reXbpdNKvglI8owqToBdfFmqfjLaEB+rQGDr7dux+KVApk5ZVi2UbvNJ12LOv+/KwUXprpAW+Yiz2v+K1CErdu/tjKopPL8ru2xVtiQ62or2wSB6HXKAOT65cJxbGAvPgRh7m84sxrL01FBeJoOc3vDj8gMs9qWmbhKpuwpQO7Xj9r+ux7cMYUWmrw8YNNVkdlymeMRnD9taZ56SlXiz68RU9i+yBF8R62C2uY6ABEwovUatPG6V12C015aqAGMXjhFjC66vrYkRFxGTbeqx/vdUun17cC4qxGDzVNa24NfFMpfXVeMkCcR1MYgJSKZucsdf525HpOnGKYitKgF6X1QfkOWCmKZsLMaIWvLBGH9waQM7RiIq0sEeSiWJbS0RcfeqeqhFX8yo359vZGhaVHBATfS4rxgONfiRWGzuUoiJgPadC+1vVtpFSa6fdNoTJ6dgbFJXsEhOlf4OyITHx/HUvTxQ5oX2WStmeEMsnGHAMHVMsqZQVpMU2ZVRYsjHYFkcQjLUirt7YL6skHERr+1hMiNMqFpeLe9caz3apw7a3HAZorahsfukFrM96MRHOr0Bpobjnt/oNjzZ2hSG3JxMYUfnrC3h5S3aJiZKhGIr66+3RZ9TcGDvfjVTKJsPzcXvn96dSNoYsdH9CglB5c8ivLx41zM6J1fKKiMt1i0LxKS8wfQS7EgQLW16sxu7hkzF5uE3oKyIqe17djY9yoPfUXNe31oUbHRPj86y2g63tVqyVCkwYZ2f7gY4Pd+OV+uwSEyVDgqIto3YhW2WfXYQjCa2OVMomR4Ov6vdrIMx3ZSKVq3ab8Vv9IFnSsrFoz4lfznS7PilHnQXY41JXs9oXBDnP1iui52TcUD+IrFbW42K0R1pcm6+BZ69EHFSIjkAa5gFGjLvjY2J8nqXX8uIu20mg13KCWOu2jGLco9ig7JkH/5cnS+B/x/QfvLaZI0MWCiFkIEBBIYQ4g4JCCHEGBYUQ4gwKCiHEGRQUQogzKCiEEGdQUAghzqCgEEKcQUEhhDiDgkIIcQYFhRDijNDHgZ2dcceXIxlA/3HA7cjsxEf/0UFHvif9zxn/tfGgQYPsHCGkv6HLQwhxBgWFEOIMCgohxBkUFEKIMygohBBnUFAIIc6goPSWufdhfXU1qtffh2/YJEJImOwXlGHlmD5rFmZNL8fp/OeGn14/Ca3PVaFq/nI8bdMIIWGyW1BUTCYBb9Vlwx8adaC1yc4SQuKS3YJypB5bt9b3+K/yI0oqUVkZncq+OMTmEEIyyRkRQznc9D5aT9qFY81o+Oi4XXCAjZ2U75mP5RttGiEkLmdIUPY4PtzXipPiljQ3HbZpjti4HPOrqlA/YT3um2vTCCFxOUMERTj+IRpqG+FYTgghKZDlgjIGl2sPT0URMGQcpsr85WNsFiEk6+DwBb3kp7/VOEoVfrTSJhBCunHmuDz9zK8270bRdXyxjZBk0EIhhDiDFgohxBkUFEKIMygohBBnUFAIIc6goBBCnJH1glJYPh2z9OU2maaXn84BDAghPZHlgjIGZecdxI4tW7Bl5z5gXJmkEEKylSwXlA/wqj98wZGjcPgNMSGkH8iZGEph+XgM2dcgEkMIyVZyQlA0jjK1YC+21vc01BIh5HSS9YIy5rJZRky2vEbbhJBsJ7sFZVg5xo+U35EV7OkhJAfgx4GEEGfkTFCWEJL9UFAIIc6goBBCnEFBIYQ4g4JCCHEGBYUQ4gwKCiHEGRSU/uDbXbjpN8DQ/wBm/qkLE+TXOboP2faUb9tlxabpFNqnPY4LZHZK7DopkYdVfynAY0uAe1cXYPvqTD4++Xjsb7JPM52Ne22qO7xz2/6XwbjFpii3rPhcP+4zCXMHY7PZp3fees1zgSwXFPtHX3bKuT/5egk4Kj/t8uucP+fhqe/mYeef7bJi097RnSagTfLamuxCH2hq/QzHWs07kRlAK/sQoKYD02bLVANUORezLiz+lmz7W6fwhE1Rnlj2iezzOBxcsjTpwqGOz3Do9B1ASmS5oHyAV3UsFDseypCKy3N+PBS1EHwrQi0GYz38XKwGTfs5MOE38qvWjWQN/Vm0bKS8ksgSSQfzZ/B9/N/mJWcHrBWt/J/DKru9aAsvU0AEgumbV+R5idoqi4WwSq0fk2etgiVnoez9f+M7/p+srTyJ1+XRNZaE7jtm+7rtx1Z76Y+t0Jbe34e1QmLKh9IdCJWx3uw+IpaFsTj8dHtemibHaSyv1XLecSykXKPvVy+THD/mjY2S7ail8GPPOtkpFsOHXiouEOFo+61nRTy1WcRFBMRwoVgNkv7hhV0Y/pL8Du0ygnL0l7asTDVvAhU/84r3xhIJIRZSjT2OPT/Ow560LSavFdeKrS339ct6sFCkwiy86BR+rVaFTnd2RtOLPvXSZv8bDRedExEgFJyDkfVe+eoPzkKlulfl+WjYhUilN+IwIh8l6g5c2RnZfjWGRCpwyQhJrzmJkovz8aL8nlukgmKtELvf10ecbfdr06VcX1Exq8Jxuw/vWhnBWjAYDY94ab9+Oz9qYY3Jx6FHxAIaI+f9svwW6HkJG0/h+tmf4hfm2D7B4o2mdNaT/YIy5nLP5ZlyHg7utoMt5SjjRDgm/tBaF9fbROVoHpq1kstvXdCFsbEPLT/zKzbNNRuXY37VfCzvjwd242dowDm4Kyb+cMvkwTh3zBDbWn8eXy2wGUrHCVRbS+QXd2qFzMMXcQo7Sjwr5ddvf4aPD1ghWzIYJSJAd9mWvypgvh57/zPjuhx7+6RUyihRyyhmv07Iw9SLgNeftcLpM3cQyvQc7DV+YtmnaBJBNJZIh00PnHcuk/2C8sGrnsuz5S1g0nSUD7PpOYpaLL7V8dR/2cQETBDX5ujmqIWSe/gWwSlUaiUOmPPH3v53pBWfNjtZC5yHkSPE4jg/3whJSRFwqEnS0OnFNT6IWgM6RdyieKhldHEnqk1ZsVA6bDpxRm65PDmOBkTHpdjD4gdQR3/J+3WOixhKUyeO2Rb3lhXnxGn5O/EdDWxac/6JA50496JBKcUKmmSdkpkFmCHi8tU7hgAvn8ITut8xg1PrfemwQqRWQx8tFM/aicaLVEB3vC/Hd0NMtdrYiY8LBmNqJK50NkoOd4aCvymx5GFUV1fj4Szs+cluQRlWjumRXp6pOHfvVtQfsXk5yJ4/52Ho9dGA6kw/JpKA5veiLhJk3scP1k4cavNjgrix6f1OxLUpwF1Fp6ItfygQqb00GhMQVn6K6sNRVyV5l2wXDsljWiLrqAVy/be018VaIhtPYa3GIyLbCVbuOASOc/sCoCEyZpftkp55lrjYnivmx2K8AOsQEcKzvP30ELR9YtkJvD7Cd+f87YigPnIKZXd4aXdpXMmPJ6XDynrsl5+i4uz7236Oh0KyHrUEFuJEz0HgAcM3cN/6H6BoRxV+lGVxF7o8JOvRVr/hos9HWv1IN/NAxLg7P8CX3v991omJQguFEOIMWiiEEGdQUAghzqCgEEKcQUEhhDiDgtIfZGL4gkyh5+J/cyTox4s6/IF+lxRMTw3vYzx9RyPzwyD0M/qxor4RbN7B6eG9mDOQ3LiT9gW3nPuTr/4cvuA0c7TVm/pKt2EQ/K+HY0Qm+g1OsNs4OEZK4MteH/tiXaLy4Rfqgl8i++mx5WXyjyv00l4c4dC3Y9GJj3Lkoz5X5ICgFKJ80nk4uM/B03ua0dZ9QmBIAn84goTDFAjB4Q6Clo4Z5sCmmwGT1BqKsRh0u/5gSvG2o/n6tm4kL8YSMWnBjxiToi9bVWP9//Xh7U0Vk/JT5gPAMPmo8r9afuQEcPFZtsLrK/32Ox5JHzUzRiD0C9+3Y78gPmm/5dHJvrlrxOTzGPlybHpg+zLpcXniF/56eFpNJ8omD+B3YwJkvaCMucy+ct/bT/WzgQTDFygTi6If+/nDFyQapkDdCtiPA3Xyhx1QIRj7XjTdDLKk1lCR5MmsioGK0lBZ1m+BQtvZLMcgIuO/kj/0K13YZ7ejwyfoelo+sn0pH0SHP9D96THX/NImpkyCYRD09fq4r6RLxfYHPjItfwL873SEe1erQHyCxQdsQjL0u57Dx5N/WKiidnEnXjTH2oWPDss6VkTuLT8r+gW0noM5VhUjX5gGDtktKGMux/iOHXj1DPqf9Hee9X6P7sqLCECiYQo+rJfKfX33b350XYgQxI1hyLaGy0+h/BbK9tXd0mET9vnDIojYvSMVwheUo29GBc8XP12vLmWxeBrL51dh/n8+bZf7B/2wblRwSALfRbpDLIZ1VnQkbUZrYECmEPabnKD7UpKPc6UqdHd5osTuV4dWeLHIe3u3sr6Hr5wHEFksKOLqjC/CkHFTvY8DK+z89HLJOUPQOIT8JBymwA6ktFMEQMUmMhasiIQOmPRUvRUhKzhtKhQl8vtSHoZP9tLSYXhGvihMHY2j3FX0afibHvvR4LTZ4got0FiGuCNXnoVzL7av6s+082bohKALowMsRQdkwpjBwDovTwdAmhF6vT9onShevEWFRLdz6MoB/jlAgCwWlHbUb7XDP+pU14rj+3Zgy9bcHmTJ54Ib5OEMhIWSDVNg3AsRmqHn2wQfFRxxSdS1Udple+PK5VeskbYicVvkwVfBCg2bIOI10aYnIlh+SiZjKEnQ3iAVk/guUZDgqGwy1Zz0xl6JGStWRWFkgR2rVYdB+ODTyJgsJUWDoi6M0M0qMuueRK2xSmR/L/sjwpF8/YZHJ5IZ/OEIpshD6ccgEg1TYLpmJc1YIV8SS8WWDwVxpcLvtAM1aa/LBSIuKhYqukOtBaRxD/jDJmh5G99JRHCYhTaxnJKVdYrtObnr4kF2GAHbeyLpM3Q0tsgob9YiCPW02JhJ0l6VYK+NDqdgy+swCK3WdZJJh3CMuDCyDx2UKWqdKJ2oDg6bMDO/+yhtAxR+HJhBNFiqVkX6Y7oSkt1kfS8PISR3oKBkkL6NOE9I9kNBIYQ4g4JCCHEGBYUQ4gwKCiHEGRSUHvFe2Kru63/XEDIAyPL3UMbg8lkVsC+CCq2o2/IqUvm0x9l7KDra+IR6VP3wVzaBEBJLDlgoKiL+K/ipiYlTmlrBf64kJDl0eVJhxPniABFCEpEDglKECv/vSC8L/L1+ptm4HPMfB25hLIWQhOTQtzyFKJ+ugy1tSWl8FGcxFP1T8VuBJ+YvR/+O+EFI7pJDLk8hzh1yHMcy9ulrHA4foJgQkoQsFxTt5bHuzqwKoG4r6o/YLEJI1pHlgvIBXo308KTm6jinpAgFdpYQEh/28vSIfbHtuiLs3sx3UAhJBgdYIoQ4gxYKIcQZFBRCiDMoKIQQZ1BQCCHOoKAQQpxBQSGEOIOCQghxBgWFEOIMCgohxBkUFEKIMygohBBnUFAIIc6goBBCnEFBIYQ4g4JCCHEGBYUQ4gwKCiHEGRQUQogzKCiEEGdQUAghzqCgEEKcQUEhhDiDgkIIcQYFhRDiDAoKIcQRwP8DFBcIP4LH3mUAAAAASUVORK5CYII=;" vertex="1" parent="1">
          <mxGeometry x="1080" y="210" width="276" height="195" as="geometry" />
        </mxCell>
        <mxCell id="ecZa3-H5GdRH_xH1U8v8-24" value="" style="shape=image;verticalLabelPosition=bottom;labelBackgroundColor=default;verticalAlign=top;aspect=fixed;imageAspect=0;image=data:image/png,iVBORw0KGgoAAAANSUhEUgAABCYAAAE/CAYAAACaSsLLAAAAAXNSR0IArs4c6QAAAARnQU1BAACxjwv8YQUAAAAJcEhZcwAADsMAAA7DAcdvqGQAAGZZSURBVHhe7d0PfBTVvf//dxIEIRD+B+WfBPoFQiLUAgpWEb1NsTWWYK/FYq1V+8fbb6v0z7X12oe/Xn96bXv7B739VWurtFqp1FZA4600KohakT+lUDBAS5LyTwgQIBAwIOQ3Z+bM7uxmd7MJSXYTXs/HY5KZM7OzszOzZ+Z89pwzGYWFhQ0CAAAAAABIgUz7HwAAAAAAoN0RmAAAAAAAAClDYAIAAAAAAKQMgQkAAAAAAJAyBCYAAAAAAEDKEJgAAAAAAAApQ2ACAAAAAACkDIEJAAAAAACQMgQmAAAAAABAyhCYAAAAAAAAKUNgAgAAAAAApAyBCQAAAAAAkDIEJgAAAAAAQMpkfPzjH2+w4wAAAAAAAO0qo7CwMOnAxPDhw1VeXm6nAAAAgI4rPz+fe1sASAM05QAAAAAAAClDYAIAAAAAAKQMTTkAAADSTH7eNRo5dJqd6vwGDx6qjNO97VTbaGho0Potf9Cqv/3KptCUAwDSBTUmAAAA0szZFJQwGjJr7VjbycjI0IQxn7RTAIB0QmACAAAAZwUTnAAApB+acgAAAKSZay7/vh07O5w/NEeZ7w+zU23rsWeL7VjrNOUo/qEdQZso/aYdaYaBAwfasbPLvn377FjyOsO+asnnRvohMAEAAJBmCEy0nbYITJzbK8tOoTW9d+RUiwMTXbp0sVNnh/fff7/FgYmOvK9a+rmRfmjKAQAAAAAAUobABAAAAAAASBkCEwAAAAAAIGUITAAAAAAAgJQhMAEAAAAAAFKGwERLTLtbv3r2B/qsnWxdn9UPnv2V7p5mp/77Wf3qW5d5E2cNsw+e1bPO8IObbVIruOxbvzoL9yUAAG3no7POdwcAAM5EOwcmMjT151n619CQqSF2jqep+VL+f4fnf/SWxmnhIVP5+d58BF2mu59IUOB3gy5eUODZQIDEEw4YNJrX0teFmGW8YM9l37pKeVUv6Prrr9ddv/bmtiUT/GnNAEiEm3+gZ5+429nrAAC0r0s/MlCfu2NkaCCAkEq36YtX/l0/KPKHl/Svdo7nv/TN0Ly/65sFNjngXy+18y/9L5vSUZl9sVZfvMBOAoAjBTUmGvTWl07p92ZYLE397wzluOkmKOFszmI7zwzzGlQQCDAM+VaWhr0Tnr/JeY15bfm/27TFDVLFaTv/tM7wsdRnoct09+c+pOrS692gwPWl1frQ5/xCtQloXCsF533VrzXS0tcF3FyovKqNetJO1u2vsGNt7bMqHFGpje0QAAEAoL2YoETeB7L1+p+q9auHK7T0uXd16n3nPgkpMW3il/WBLnbCNUoXX/mkvN9qTFDieuW6457cwYGCe8FLbkDi4mw7nYRpE9eGghxm+M+Jt9k5rcRsU2j7O7BZd+nhhx+2w10qscm+SV/8fnj+g7drkk2P0MQ6OhNvf3xft0+2CVbEfvpW5B5INC8oYjkzxNvf6LRS25Tjjw3alZOhXs7okG9lqtfKU3rrj94sV3mD/rTYyfs+keFO5gxo0I6V7qhr1/wG1drxlIqoLRCj6YX51Tw03y+UB2sRNNVcY6Rby8FbNrLGgWmeEF53oloM5n3Ne96pDzk7PK/YSTO/5Ec0Sxmpvr0ChfRfb1Rlr75OqmPa5Rqjv+j50Lzn9ZcjeSp0axq09HW+y3T3Fbn6ywtPurUX7pyUrexJd9ptNhLVuEgwL/j5nc/qbk8UUzsjd83zbkDE3Zf/7ewlZxu89UXXpIg8ZmbZoODrzPF011ecJ/X6kO500tqsVgYAADHUHX1f2zYfdcff3Xlcr7ywxx03LprSV5/9Sp5bk+LG20do1NiebrqpVVHymaHuYOaZZcyyvuDrPnXrBerSxbtHaw99pgzSJ2YPiTMM1qVpXVN2n/6x9f/orjIzPKtqk9Ql1wtGFHzI+1/3rDt/VZ2ZyNGQAcFgQq3+UbPNjifi1cwoztmkUve9vOFv3a6PqqEBqUR3Xdlf7zx1h+644w49ubG/rgoUnE1B+bN933LnucPdj2qNnRcy+XZ9P8E6Og9nXz38sK5XpXbalJBZd+mzeZV60t1PT+qdPlfp+1+0IYVE82I4vvHJ0P5+9dA4XZ9gWXQ+adPHRHTQIaSqQbUDTPYs7XrHybvnNm7e0RLX/b8LwgXM6OFnd6rQLtc0p7D61UBtgesf0pYxd4YLoSYoUSy94M67Xg+tOWjTnXfwX/M/f3Fyv8/HaeIgp5B+lfQrb9kXqrL1oWttgdhZ952TqkPrvv5/tmhMqDaC2a4x2vI/dt71dzmF7yd1l7N9fzkiVZr3vvVBveEu66vQwWDQwNRiOHLQSXXk9VX2gV2B5d/QrgNS7nkmoNLS11lu8GKLXl8hPfnvZh/VqW7NQ3abo2pcRHzGRPOiPv+vpKsmRf/UcJkuHyNteSuwF0Zcq8KN/vr+otxiP9jhvVeuu13e/Bd0bSigZIIQ1zop/rzPff8NvfH9z+n60krpyF/0kJPWHs1SAAAw9u48ruyeXWI23zBBiLEX9tbf1hxya1NU/qNOEy/tr/OHdnfn9+nXVdV76t15e3a9p/8zLsedF/26v79TqwGDurmvaQ8fuqS/xn2od5yhjyZO6m2XTD8r1l6tx/5pJ6L8a+9R7v/qw//h/v/9YS8A0T3nCq9GwqardVfZRD32npuckFszo/5Z3bXss3Juq0J+/+er9Xvnv1uT4tInbbMSvzlJsBlJZBOLUPMRM9gaEu46Bjvb3GWqip30ULOTC57Uf4bWE9lUJViD4z8nep835Safp/51lVqz2ptcs65Sx/ucZ3+lL9FVpkD9/cXuVDyTLsqTNj6rR/11PPaWdg4ZHbPWRMm3HnYK5be7Bfxw7QGvwN+4NkEgPUYNhfa3WD+44w5967FwcNNXMnqodq7ygzZr9OiqneqeN8ndj4nmNWXnwePq3neoncLZIKWBiZxbMjSkokG7lKE+OVJtrKYXTtoRW6uidv5pr/mH6UMi1ASkZd5+e4sO2fFIJ7Vr/Uo5xcmk+P0hhAudb+jB1yqVV2iLx4V5qiw1BWzPG99/0Bv/9V3h16x4XVuO2PEY6tb8Ug/aq8uTG50t6z/EKSabWgaR69aKB/VqlR8gMMGCbPV18suEnNd8zg0AGM623/qQDl5hAzRXHNRDNnhx2XnBCoaeiv1uSN/R0td5Pnvth1T9WnSQxLr5E/pQsMaFu69yNcRcGRPM847Lq6H9Zj7nL9dEvq/7+gOBZYzgsXT3Z7bGTL0s9F6//H54K5984S/SmMudI+HsgT3V9rgAAJB6pqbEq6V71adv10b9S4zK76Xjx9/XupXejyUmiGH06Jnl/j9Uc0J/fnmfO77v3feUlZXhzot+nflvAhft5dXf7NU/oy7lvvd21+h/nzpsp9Lbv15qm23U/cUNFjRytFreEWmu2zQ2JycU4Igru8C5GTM1KUywwtSwuF7abWtXbN2kIaPDAYsR8mpx3FX2Pf1DU/UvE2/TirUTddfubdL7b7m1Mn64yVv2m6MLtMuvFbJb4aYqBS9F1OB4RTOimrWkyOo9OpCdp0m20G+CDN0P7fEK0bNGa6hTUJj0oB8ceFh3zXIXa8JO1db113lxAgndC3O01a0R8Kp2DrnKWe/oiGnvPSbp9gevkpZ5NQfuuONbocBH+pmk8/ocV22wGsXOWh3PztHQhPOaMkmTnDLMO68mDgyhc0lBYCLcweVHxzXoT9837R0bdKhWyolXBa+2QaFy+x+9PiT+9E6GPnoGwYldpf+p/35qY1Rw4qR2vfyQ7vn524pz3YupUX8IlQdVZ4MHQ/rX6WDMKIf5Bd4W5G3ziqSYddtR550brdsU+r3aCCZY8IJkmmw475FUMwK36cPnQ7UzTC2Dz9vmEW7BO8rIAbYGQktf50qijwfbFCK8rwIBlwTzmuqnwg0abQyFdWKKCKJE1PxwrNilar/Jyq/v0kNbxnjbQmeXAIA0YJpv/O6Jf7r9S5gAhWme4TO1IkzAwgyXfzRX5/bIVE6fc+zcsNpDJ3XqVLhvimN1p+xYChw4oN/+f42DEyYo8cJDe5RMQ4fU8ppZuH1FmEL9n5sIILRIrWq91jvx1S0N194ouF4f0Fta5QYXHP98TbveH6h+bq2J/9APQ9v4uDbXxm9APW3iDOUG17vpL6p2m6o4nzl3lKqrwzU4Vqz9mf7xvp1IKVML4C3l3OQFHtxmG7aGxKSB/aUhzg3lczY48NQ76n9l4/4j1uw7oO6FV4XTZ12lcQn6Ajm+8VXnXY3F2rqr8XT/gaYuwRrtcQoo3ni6G6qc6M9rAj7uSKJ5sXUv/KwNBH1W4w69lcYBGbSFFAQmAp1f/nu4j4ja/RkaNsVOBH0sQ0P2m2w2kqk9YTq/HHIG7Qm3Ph8MTrQsKGFkD4jqvSCi+UKsWgsmKHGn+r5mC/K2eUXzNV63KfRX7/GLz6bphlm/CVBE983Q2GVTxyg7qpZBqMaAEVEjwARd5L5XS1/niur0Mib7hI7gEKrVkGBe9HFpdkDEEbE/o2tETBuiXL/JisNtuuG8vxugiOp/AgCAVDEBirV/PqCuXbNCfUns3nHcbY7hD0/+tDJUEyKRHtlerQpf9HSbiwpOdJyghGku8W2vpoDpSyKqqUWEnrlyG9XU74y/TFw5yvEOcfJskwyvqYXZxvA6gk0wivs18XNg9vWhZX/gdubpBziSCJakgttppV9jwRm2jnamA8GHXYGC8eo1qqwbqtHRtSYW/cDrV8LWqnh4dK3eaW5BIobF339SlXleIT1RnwypZ2qI2FGfaSLjjiSaF1uwjwn3eNAB5lklbfqY2PX8aWlKlqZ+zCYYH8vUvzq5w6bnvUh9/reCNSS85h9nyg1O/OIlvbqoZUGJN97aoroR1wZqJNgmFu4v8W/o9S11yiv2+z1w5n7rbmfcdBYZqO1g+lhItsZESON1m5oLV8UsbCdo1hHo/NL7LIXh9TljhSNsEMF0WqkP6ROhfiTCzSha+jpvX3mdXsZlOtKM2L8BCeZ523RVOBjj7hs77gh2ehkh+Jqbf6Br/f3pduj5IX0+0EmpaYKiLa9H1qJw0KwDAJBq/3LteRGdVg4a2l3ndPU6qjTNMwYO6hYxPxnmdabfCv915n+sWhZtzg1O7NGqN/fotx0iKBFuvnG85nu6K6qmRHW99/Nbbm/vMaB+nxPH65v7ybxaDf56kmY73QwOpnmGCUoUd1saSiutiV9jwnA/W2Adbr8Ybg2K6GDJKOWkQVMO0/9BuMaCY9GrescGH0xNiGSteexb4cL0q5JTCgj1W9Fya/To3WadXoAiuWYkqdJdOcG2GUNz1L2u1naSmWheExZt1c6kmn2gs0ibwIT7BI4vnXZyCa+ZhzuUSG8FHvtZviFDH/XnuY8WbZ1Hgm790+N6ZEHzgxIu00eD20liuDmBqQnh/2pvfkV/aE2urrXNDe4cY8IET+ou97GZ9jWf66vqFtSYiF73s1/tq1dD/UUEnyBxp8Zsechuk+0Dw38qh7usZT5LqcLre9brWDL0ul8FPqfp0NPvPLOlrwt0ehmfs68i9q8zhLY7wTx3m4L7WHo11MdEjE4vfVVbpM/Z1xTn6i//4+9PU/vkBVW7Twvx5l+1/yG3k0sj4ukowc9oAzM8lQMA0J6q/n5U4z7YO9Rcwzw6dOXy/W7fE6ZmhOnwcsLFfUPzg8084ol+nekUc//eeju3nR2o0avP12ivnUxvt6mf7SO0e79vB2oVeH05rNi/yetTwtY48B4LWqtd+x83I82yYu1SVZv1XBoZnPjXSyM7owwxTS6c5UMdWAbkdssJBEe8/iviMZ9B/b4c0XGmxwZLcsOPFnWbfdjxVFq8NaojxsmTlJdt+0QwheJQnw8Ot4nGTm1dZMbvivNL/iTdft04HQh19tga0r1Zh9eh5dCL/f3h7IOL/Q4vE81LgunnI9kgBjqFjMLCwqQfaj18+HCVt0YkAHCYx2uaJ2D4QZx2Y56UUrhR1/97ZH0JE1y4c8CrjdIBAGhv11z+fTt2djh/aI4y3x9mp9rWY+YXBCs/P/+M722Lfyid2ytRkxbTjMN2eBlhm1a5HVA6zBMtRk/1mnCoVv/Y6tc2CCh4yXsahqnhkLB/CtOXhW02YlXvjqoFEXx9xHs7TP8XblOT4HbXqrpO6lX/M/0/a03AJPwe/rpD2+cLbKd5uocXcDE1K57VrpwZUkWMzxjlvSOnVPpNO9EMAwcOVJcuTVfLcB8JWuh/8uN656lAR5PmUaA3jbP7ZadeveMHXu0KE5i4uFZPuo8PNU/PuCr0q/7OZXfoByZ4EYN5KsfUg0/qW495xfL409LtD3423FfFrldDfV8k8v7772vfPq/T2uZIdl95zOedqtrgfnKYbb/KPjbRNMfwP5ORaF5Q5LEwAvs8gZZ+bqQfAhNIEVOjo1AbQzU82k+8gAiBCQBAuiAw0XbaPzCBlmrrwERn0j6BifRDYKLzSJ+mHDjLmKYR7R+UMJ789xTU0gAAAAAAxERgArDcp2pQWwIAAAAA2hWBCQAAAAAAkDIEJgAAAAAAQMoQmAAAAAAAACnDUzkAAADSDE/laDtt8VQOtJ2WPpXjbNTSp3J0dDyVo3MgMAEAAJBmCEy0jYaGBv3i99faqdYJTAAAzhxNOQAAANLMtp0r7NjZIeN0jh1rOyYosX7LH+wUACCdUGMCAAAAZyVqTABAeqDGBAAAAAAASBkCEwAAAAAAIGWa3ZTjvffes1MAAABAx3XuuedybwsAaaDZgYnKyko7hfZ2wQUX6J///KedAjycFwAAtExeXh73tu2M+xYAsWTm5ubKHwAAAAAAANpTZnV1tfwBAAAAAACgPdH5JQAAAAAASBkCEwAAAAAAIGUITAAAAAAAgJThqRwdCL0YIxbOCwAAWoancrQ/7lua1r17d/Xs2VPdunVTVlaWTW2eU6dOqb6+XkePHtXx48dtKpC+CEx0IGTkiIXzAgCAliEw0f64b0msX79+Ovfcc1VbW+sGFEyAoSVMQMMEOHJycvTee++ppqbGzgHSE005AAAAACDFTFAiMzNTu3fvdms6tDQoYZjXmnWYdZl1mnUD6YwaEx0IEebmaU41uI5c3Y3zAqnQ3GqmVCkFkI6oMdH+uG+JzVxX+/bt6wYS2sLgwYN18OBBrsFIWwQmOhAy8uQ1txpcR67uxnmB9taSaqZUKQWQjghMtD/uW2IbOHCge001Afy2YH5MMNfhffv22RQgvdCUA51OS6rBmWWo7gY0rSXfL4PvGAAA8ZkaiG1Zm8Gs27wHkK4ITKBTMZFg80vu/v37bUrzmdeadZh1AQhrje+XwXcMAIBIpmZhssH+ljDrTqbpJZAqBCbQqZhqaqZ6+Zky6zDrAhDWWt8vg+8YAAAAfAQm0Km0VjU4qruhYynQJ+d+0vnbtlqzminfsbPAoCt169xbdeUgOw0AHVHhJzX3ura+wuLMmXuh2Nec3Om3au6tVyrXTncO5vPO1ScL7WQrKbhurm6d7u0pM96e5377d35pvtwfGWYnjFqt/+0TWrbXTqYTs60X12jBE8tUbZNSqdU6C3KPQe/Y+93cSH46T5VJHBNzso7dOk9/2GgTAsy8S2oW6Inl7bvnWrNDpY7SOVPrbafJ4IoU+nbWrk+bc79jMvtzrDbP+4M22RSX+Y5dI5W26r6N816trLW/E6n/jkWd847av7Z/vpUSTV7fcnXlrXM0IcdOaofK2vL8cq89/fR2G5/DyYn+7J4dL8e+3qFja7XOL6Pvb7eXad5zrXM2m0LVnH5vt9r6Uq1V8n6zv0dvbrRPzL4qVmnr5uNx3qu1tcc1MfXXXcvN8ycolM22yj2nuaZfopp0LVe2gPvd/2DUxchow3v0VJXhjNTUmDCZ9bx53vDyYU34dNv/0odIpjZ2Xn7juGHBh/OcmXaiGcxJHIzYbXpuXutfFFohYudG/uZ6Q2tHGDsHU/jwvptlhyao2EZMgeSYmwL7Heswv0yEz/l588p0+INzyBtswTyvYkHgWl2j3LOq5oP50cQ/L7xzQx9p31+O0AEF7m/LVBT61fFMVS9/otMEJXCmTP4cLDeZaf/etmOUp9zaC+6PoIE8dlU/Xc59eSPud9/dRwu03imfmQC5O91JfzjMys3N/a4db1Lv3r116NAhO9VCueM0pf9+rSy3j6qpPqDu48Yre/c6VdWZm9obNWPKFE1xhnHnVmhdVZ2zkEm/VuedO1IlJTNs+og4y3qFz2sHddfIkhJv/uAjzvvlhpd3p8OPyjFfkC+UXOGux5/npl3qXFC6nacLnfQhR1eq3DkDYi0bWseH+qj71BKVXDFER1aWKyPOsi3Vp08fHT582E6dAecYXJFdr+oxFyjT2c7wVhVo2tSTevdQX+fMN8fDJseRmz9FAw7Y/RIYbxPR500cTe2jfeUrtXKlGY5oXHGhDqyrUryP2eL9nXOx5nzpev3LVOe4m2MfMVykPtVr9I+DdtlW0GrnhXNxGzdlgPbbc2Jf1hBdMfT4GZ+3rSVn8hz926f+JcY+dYaL+mjPmn/oDHOnVha5P0N65umi0dLW0LkXzPfGqXtl+Ltn8rIbZ9jPOK67KgLna3DekKMV0sjge8VZp/mF4gsT1efcqU5eeoWXr2WYtBJd4S7r5V3xjniT51phoc57+xk988pKVfS+Spf3XJcwT2i9c7eloo/RPh04d5zG99hlrzHR1526uNeAWGJdF/YlON6Rx81Z/ug43XhZpvseZl2zR5jtsgubYzk7T7uaeR6Zz7FrxOyY17ewbOVddIEO/fmN8LZVVwW209wIf8H5TOF1xtxfxy92z7cT5nPbc++E+UxzZrivC+0/E3ieOVrd1FujQusLvVkKmM/vfEn/Hjw2+1TuXDeGzLhE58X7jjb6/gSPSXg/Rx+P1H5W9O3b98zvbY2o+5R0u4YmMuJj/6bPFV9mz+OoIe+03tm4S/V22dbQKnl/nPvC7BEXabS2RuaVMa9xkd/PyO9iVF7sXGJHBd8rzjrPtCzQ9DXWySvnXKbzutWqwv8chVfrqvoX9cgzr6jCubZfFbxOxJDy666z72YXZWqFU9BeFdzM6vLwdShi/zbOJyOuwxHXO3NNH6rjG71pL68NHIcPnWjyGEYe++hrdCqZ69KF6r4reL022+pcd+02ms/bnPJvvGuRKdMNPf43d9pbpzfPO79P6Ej+jfZ1Ufsn7j5NXuoDE8EbgLxpGlcxX/OfdwqOld11UdEl6uN+YHOijdPoE6s0b/4L3o4rjLest0PHjTmpVfPm6wX3RqLIOSBdI6bH+Tdizpf8C4XvasEjz+gVp8BqdrY5AG8sf0Mrjw7RlAFV7rw1CZY122MywgvH9NXe5x5xbsqdAxG1bKKMKFmtlpm4x2CzVh2+SGOzwid47vRrNf7gVh06f2johsyckNMCywSn/WBE5mVzVTTcOT9GOieiLTyNCC1nvjTTlBm4GQ2f/JE3t8EvjPs+zpdrqvPlumhInq64aLDzBqMafwmiJL2PBhVqam613khwXFq8v+uPqOsF43RBry42IeDQFr2xqkKHTtrpVtB6F5lgIc05NsXjtfeVP4X3tXtBtAWKUCE53jH0jvt5bgH4InvMIpcNBvtmj+jjZaQJLtr1x7rqgvwLFGu31m55Q6sqDqkVd2srSCYwYfZJibq/Ps/mZX101adtQc7Zh9PyKzTfyfNWrqxQ94uKdEnv8MWhpPsKNz80gbbMy27URb39G5UE6zTvfeFo9d3zB/cmxv1+fqFQ7/7W5FvOstHbGqXJcy1QeDV54gXHOlpgInhTmx3juhP/GhBLo+tCwuMdNW9lpqbNuUi9D1e434lGN9tJnkfmZix4rpjX11Wta3x9i1CnY70vUlHRyBg3Fua9vNoU5hwyQd4+I46pKtb+cs+37tpl1mHPvXFdvPnuOe3cvF9lzulVa9zr+LgLTzo3q/P1pzj7s/3ECkwY+5Q5+AoV9gx8D8/fHL7Om+tc8Xk2bzR5YJH0sn9Muuu87CodG9f4eCC12iowEZyOuKex90AmLbJQYIN7gXsc/57rgHPeBAOTjV+b7XwvZyvP/ZHPWcBcr0Pnoln+VhXWxL93On6ir8aMyVW3DJsQUq93172uv7zbuo+wbJW8P6nARNQ1LvgdjVuOSJwXJ1qnovP8ZpYFmr7Glnt557gLVLfOy5sLLpuqk3/xgsh1VSc08qq8tvnRrZXkTr5Kk06s1wtx94XZv5eq3s87nc/b56o5mnjSlkXMPr20XmVumc4cu8jrqB+YODbZz5//V86R8a7H3Xc1cQyP6eKIYx//O9P+YgUmwp/XbGdzyr+R95GR+zgYmAiOe/c049R1tbd/Ks517hMu6RO+5sX7rtmtTUbKO7/MnV6sCarUJtMWaOMfwu03925SZUSTglqtfzNQjS3hss7Sf33dtlPdpM3bG0/3HmCq1zmZz8XDtGNVuDrMpq07lNNvoJ0KSmLZ7W+H2zTtq1FtTj/FWlO62PTmevW+2K9unauCkYf19vLEmWYsptlGmbNP3epFT8SqWjRMRaZtnlsVyVSVLrYd01Rr2RO2SpKpotTnkogOa4aNlEqdeU/84bea9/IOW0XyDNuNmWieqe5m2vi3WbXIWq39/UK9vjvq94VDm7T42bI0yuRicY6VWx1wjiYcCpzP5iYndAznaUFFnm3mkegYDlOeSu0xMxf6YulFf1lTLTpc5TDng/202aQnOiaH1mrh717Xu1G7tXbTYi0sa17G1378/RkYgm0qCy938r/1ej0iL+ttq8xv0h9C+6Namyr8TK5Al39QEfnhpufK5HxDPAnXaexwvuf+t3SfampzFDPLOxPO96y439sdrz2+2W5n31aGrvrB607ia4C5yIeOcbAZS/C6kOjYRM8zx9/ke8lIsN7q/c4NaJ/c8PYkya0++rLs+RuoHjyowPler1dp6BzapGWh8ajrdCM7VBY4p5etcvbfyIJmb1sq7auJ+h6+GLjmbXzd2TN5KnCP51gNc65Z4fuUZVrmjLf0eKCjsfnF1vD3IXRP43xfTGDB9NHlXzsrR5r7ok16/a/BZrYFGjt8hzaH8gRP7NdWq/pQOC8vGN3b+Tbac9Fdz2FVJ7h3qnfO1YWlm1R72ia46vXu6wu1cG2NnU5Dw4vC+a4dgu3xc6df4nwPA3nwxs3a4d+bxytHNJEXJ1yn0cHKAqlQWxO/rOHt30Deaa8Vw0abq5D9Xr0c6IvIyVvf3j5MY4PNQPI/6ZwHh1UWs0yS6Bia75FfRuyYkiv/Rt9HeveYSX3uwLGpLq8Mnd9Nfi+SlJrARCAjmTOyMtB5hym8+JlL446nIjVn2cSGmXajdnvcjosS3DQkvazzRXki1k1dOjEZcegmysmID20Of9FbVfBmNOrCawq87j4yxzCygBQsALQac1zMxfxFqbgtj8vpmsjgRIcIShiB9vZbx4YKWLkDekd+b50LfygoF/cYBgvAA9XPmTfh097r57odDoYLy+GMswkHIoMT6R2UMIL9F9jht+udG8aAnAmaY/dr9D4MFnYjOz9KfJOZaJ2RTGDJtp13lm2NvhXcbW7TwF9rCwSPkuj4N941INwO1Bni3Ay5Eh2bQ85NkR1ttnjrdW6+TSDRndfcfj+c17qfx72W2Z7OB/ZTzplsZ5C5abejHcXAfjk6vN//9NHfw3Dh0OSZMW++z+R4IP2FrpNeraJgcDZ8T+PkGX2CeUn4+2pu9OUH6wrHqneja2P815pAqVd4K9DYPpV6u0JeHjAoV723N31/V1cRDE50gKCE4f5gZfNdOyz4a1SuEhG8CN57JChHNJXHxV1nlI5QFkiB2D8AhzXKO821IlTeqlXj2cFCtXOv+cGo4EUscY7hpudMsG+Om95afcSkp+A9edR9fbL2VjtXwYBkvxcJpL7zy4igxBz1W+VnLl4nH7E1Z9mmRHdw5Qxxbyqbs6wjeFOXljcgJgp5WBM+XOBG1xP/0tUGTIHW9Apv96WpddFugtHxtmKDEy+9uUwLO0RQIkpUtNM8rSDi3DcFz2Ydw+hCegtrv7jBiZf05+XOTVNaByWSFOPGytzMmgK+2wu7TYu82YrK7M2Npx11xVlnbJv0B3cZE6A4w0c7OueD6Q09Yb6YdoLnZVPnZDOvAbEkOjZRgW43IJisBOv1gyZugbglnTeawnQwoJwgeN8srRnkaA+DrtQlEb9gR990mUJj+KY53k3eGR8PpK/A9zBxB+CN8xL3+xr6wci5z724d6D2VlCc15pr9vCx7mtVsUmbyivVe3SBcvPzdDhQcyMRNzjx+2X689IOEJRIUqN7l1AtzgTliCby4tjrtDOjtXFZwCmzB37sG6vezrFP5zzV/ZXdnKd2OpZGeWfEtSIQzLciA8bO9+Pl9erdxP1M/GPo1wT2AhSdtzPsGD+cneEPSs36XsSR8qYcYeYX1UAUzFQXjVsLojnLJmKqrkgTrkkmo2jOslHSuSqXeyErUlEf25wmiolCehF4w1QHtKPNEqxi5VUfMhdbN6MPZTQtXXdzREbH+61qh8fSna7R5tXr9W5HLD2bqsi1NW4bRlP9OOeDlze6kCR/DE2TgWG6pLWizwc2a9Vf3+34QQn7/Yt14TMX2vCvBqaplZ/Jmep4OW5A0Vfw4UDzkATrTOzMm3UUjB7mnCfeLw3u0KkKXWdwDfAlOjZmXs6EQK/kJq8MX9jc72Co2YOTl13T/GOefDOCAn0y4tgFzj+7neEn9hToyqS/18E8wHmPj0RWdU9rphngpyfocOhXOPs9DJ4PbhVw71rq3XwHjonz+iujjg/NOs5WzjXzUGQeHub9YJT34cuVF2xOGZLoteac7K2xH+6nGhPQMEGOPpeoeOThRs1BEqnbvV6ryjtHUMKtgRJqPhyUoBzRVF4cd51NaKOyQPXy0tAv/OaHonAzuzRlm14URdcgKfykm182yjvN9S7ULMprcjAs0BS4ccDYsc/UVDFPfYwdnEjuGJrvWsdu1hGfySucY9CK92gt/l5ESYPOL337VH50pEpm2s71Ljip6vpzddztfCqyc4/EyzpvEeiow0g0bToBO5JXohLbiZAZQj2UmyeGXOQU2q/w0tasir9sZKcqDvNLst9R4IU9tPm3Ub3PtkCrdVgTcQy8Xuj7/H2R7QAtstMv05GO13mK+bxdVetc9BTjSRym9+kZH3E+r+0UMTs0zxy7rlKXGZrh7rdRqn35Ef2vc/4mu25XdaZdNnHnl7169VJdXZ0aGhpsSlCdqtaZzmy8IbTuGLKyspSdna1a81zVNNd6HRmZY3WRLrLn9pSRtSqznQY5OY7b27N5kkPw3F+zKt4xNOsKdipo9v2RcE/BZrDniuksKqJTv04jeh9YEZ0WOnlZZXdNnRnufdrfL1Xlwf11gU7urde5x739tK/c6zjQ70i06+oy1YaeyhF/nXXBzgjdjXEKh6Hepy9Uj/IFWpAgo0r8/XLygdBTb+wQt3OrdPmOxTlGLjMveN0xeVaC60UMja4LiY5No3ldterl2nBP8IHrkTkf9r6+WT2GNH0eZU8P9F4e8Z2OvL5FfgbnujDo2kCv59654f0C7LzXyuC5OUonN5qOVBvvr8adX55U5Z7xNh8ZpYy/Bs63uiqdGDxDRc6+je6Bvf2Z6+AkTZhk96UZbMecrwX2kznfI84H05moX4PG+TzrgsfEuQ/Y+7bXIVvM44GUabPOLwOi72mi8/CIHuyd+52RMy5S/eoXQssHO3RM9Np9WSM1Y1SNXn3D5AteJ7aTMhJ1NJga7db5pfkeBssLZnA72d6UoBzRRF4cd51eJ8VnUhZIbr+Y+6ngNStwb+teDxJLdeeXhsk7o+8pp3RZpfmv2f0bsf8v1MnXwzUAzXU44rVu3uwHjAPXoUpz32o6cfaeQLa9R+DYxD2GGQp20j7qcJke+WO65NDJdX6ZbPm3cT4SLl8FlwuON76nCdxDJfheNEdGYWFh7DvMGIYPH67KSqdEiZS44IIL9M9//tNOdRSm4DNWm0OZRtsaOHCgjh8/rqNHj9qUlunZs6e6d++uffua94VKhY55XqAjaq3vl9GRvmMpY25qTaezHaa/jgTcGgf99HY7XQuAZOXl5XFv2864b4mtPfYL+x7pLI2acgBnzhSYcnLCVe5ayqyjNQpfQGfSWt8vg+8YAABhp06dcmsTthWzbvMeQLoiMIFOxfya+95772nAgAE2pfnMa806zLoAhLXG98vgOwYAQKT6+nq3JmFbMes27wGkK5pydCBUv0pev379dO6557rt103hp6kIsYkimwzb/IprCkw1NR2n4yfOC7S35n6/jI78HQPQedGUo/1x3xKbuUaaPk92795tU1rX4MGDdfDgQX4UQNoiMNGBkJE3j8ngTTv2bt26NVk1zhSsTBTZVC3vaBk25wVSoTnfL6Mjf8cAdF4EJtof9y3xmcB/Zmam9u/fb1Nah6mpePr0aX4UQFojMNGBkJEjFs4LAABahsBE++O+JbGW1EqMhZqK6GgITHQgZOSIhfMCAICWITDR/rhvaVpzayXGQk1FdDQEJjoQMnLEwnkBAEDLEJhof9y3AIiFp3IAAAAAAICUITABAAAAAABShsAEAAAAAABIGQITAAAAAAAgZQhMAAAAAACAlGn2UzlOnz5tp9DeDh06pMOHD9spwNO7d2/16dPHTgEAgGRlZmbyVI52xn0LgFh4XCgAAADOSp31caFZWVl2DAA6BppyAAAAAACAlCEwAQAAAAAAUobABAAAAAAASBkCEwAAAAAAIGUITAAAAAAAgJQhMAEAAAAAAFKGwAQAAABwNih5QAtLS1W68AHNskkAkA4ITAAAAADppHe+ps2YoRnT8pVjk1rDHVdPUM3LxSqefY8W2TQASAcEJgAAAIB0YYISE6S/bqqxCa2pTjVVdhQA0giBCQAAACBdHC7XihXlqrWT8fQdUajCwvAw5vzudg4AdDwEJgAAAIAO5mDVNtWctBNHd2nLu8ftRAy2b4n8zbN1z2KbBgBphMAEAAAA0OEc1+7tNTqpOu2qOmjT4lh8j2YXF6t87EI9UGLTACCNEJgAAAAAOqLju7VlY6WaCEsAQNojMAEAAACkjaGabJ7IUdBP6j5cU53xyUPtLADopDIKCwsb7HiThg8frsrKSjvVCgo/qbkfkcrm/UGbbFIsudNvVbFK9cTyapsSYNYxerPmPZdoDe2pQJ+cW6Rhdsq1vSyp7Su4bq7Gbp2nP2y0Ca0uV1feOkd5FQsi9+WgK3XrNVLpE8tUHRy3s1Mnxr507WjynGk+815jtbk563XP38it2/FyWx4/w2znJar57RNattcmJaWlrwMAoPPKy8tr3XvbNJGVlWXHIt3xqOlnolj/Ns8mAECaSGmNiYLRvbVje29dMj3XpnQWpuA8T/PsUKYizb31SrXKpzSBg5aua1CB8g7t0OEPXu4UUzuCTfqD3YcL/lqr2r8usPu0tYMSZ8AEnew2zptXJn1krm5t0/PZ7JPkggsm0PXJQjvRjNcBAIDO6eGX1qvfR0pVuvABzbJpAJAOUhiYKNDYPpV6/c1KaWRB6xTa09Sm5+ap7NAEXR4qJKZGbn6eDm/9gzZvH6axKd6WzskU/ss6UOAHAACcVWwnmMWz79EimwQA6SArNzf3u3a8Sb1799ahQ4fs1BkqnKap9Wv0xqZ96nPRJcrdvU5VdXaeW+38Rs2YMkVTpgzR6T3nqq+2ap27gGmO8AWVXGHmjVP32nqd132/Vpbv816acrkaN2WA9q8sV3CL9mUN0YzRmd52mloPXyjRFfbzHbHL5uZP0YADK1XutqEIfs4pGnLUSc9wXvfpCcrpdp4u9NOcZc0v4zfO8JYbd26F3U/RcnXxVYP0z6Xl2hTcFqNnni4aLW1dV6W64Lg3Ny1kj7hIo0PngCNiH4b3hcs0sZgzw02fMri7uk+9Snn++RV3XtRxi3OMIuSO05T+0efePmUOnqGxWXZ74h3r6bfqCyVX2O04YtcR55jPzlOfvBKVzDCvz9S0udOU6a7HfE+c8aPjdKP9TP7xN+dE0XDnOzvSWde47qpYl62rQ6+L3q7g/mu8zoh9CwBAJ9K3b9/Wu7dNI5mZdCMHoGNJUa7lFMAu7q1Kt7RTrU0VUl6+X2fCFM6K1DtUbX+z+n0wx84zhfA5mnDIrz5fKo1s3ANBWjMFQtOHg1/9/2Wp6Lro39fNPiiWXrTLuE0EPqmCvcv0xG/Xq7Z2vRY46aYvA79fCm+5BaocWawrB9nVBBVe7uy3zV4TiI2btWP42I77q77Zh5/OU+Vvg/vnVu9zm3kf6a31/ryt/TTBP30SzQtK6hglIe56CnT5Bw+Hm/vY/kfMuW36/3DTnCHUV0XOBPVzj3GsJizDVGT6WHFfY2preMffraWz3evzYl50fyGJ9p8rsM6Xd2jYxa3UDAkAAAAAYkhNYML0daBKbbLt3avLg805Bqqf1qs01DnjJr3+11o7nqvcPjtUFupIslrLVu2w4+mvtmaf8/H6KccpaM6ZO1dzzWA6T+zjfC67jMfZBzk5mvBpu4zbAWRv5TYKOJj94RQjP+IvN8cpaOeo30A7O6Bg9DDt2Orvt00duzmHsw/119JAfwnmHLHBLbN/t78dnrfxda33T59E84KSOkaJ1Moc6vjr2aeaWqfwH9FXSIHGDt+ht2N18Fq7Xq/H7VAz+H0I7IdEEu0/V2CdJoiV0885IwEAAACgbaQkMGH6OogosJnmCTl5KnB/8c51iuDxmAK7He1QTA2RYTq83xY6IzpMdIboX7RdkR1ozovbcWFtuAaAHRo/FcIUeoMBDK+a/7DRna8nhNwBvb0AUAyJ5jWS1DGKYdCVumT4YVX7xyrmeqq17Aln/EWp2BwPU4vCnPe1NV4zCwAAAAA4i6QgMJGrgpFqVJhe8FdpwoedAtreTapUsKNIU+3dj0Z4v/SHn+LhFfjTm2mW4TU/cQMG+2pUO/yS2M0tQrxf1Jt+WolTxD2U4+23RArHalh0AXlemXY0uR1pytmHsk0WPOYckds0yK19E+x80jRhsadPonkRkjpGMbhNJCbo8Mu2yUVT6zFNc9zjMFYF9rwvbvYTPYI1X8L7IaEE+w8AAMAYfH+Dir4u9fp6g677mfPfpncYH5aKnmrQYGd0ivN/yo1ecvNl6KHfZes3c6Vv/zxbb/y8DYpPc7u2zXpDvM/wxu+66AabkqwbHjxXLz2YYadwJsz5Y86jaLHSTZrZ72b/t+S4dUTtH5iIasbhM4XGWrffg2ote3G9eod+3R+rmlBTDmnTc6Yd/Rw7r1iqSMemHMNUZGsmmOYVbr8BftV4Uxh9+XCgmUasx0uaX9SDn9MZ/Gr/tgBrapuYR0Fuem6B1vcpCi8395PhgrcV2YzDZ4I8OU1X+09HjfZhkfSyrVHizCv9a+/w/h9dE26ukWheUFLHyBoe2Pe23wY3AGXEXY/pYNJPM9tuAhmNj3n4UZ+JOOf/6OC6wjVrNm3d4dWSiX68bKL9BwAAUi4nf5pmzJjhDtPyU1td+Ii5P6hx/nuTHdIhZ+MPVdmJM1BVc0pHaxq8CRNMeNEp7PtDmwYWzlSD7vxUnS771Pt6xqagY3hm72np4Omz4rhlFBYW2m9X04YPH67Kyko7BXQEJggwVptjdhyZaF5H0NG3HwCA1MrLy0vDe9uhmjytl7asKFdt73xNm9JTFUtXa6edm4ysrCw71nKmxkRBTYbK9jbouvwMPfcdJ9HUQvhYg45c4Mz/Z4be6degcXKW+bIXuDA1E0wNBWPlTRnabceD6e88mqHNb3rjsdJNDY2ii2yiI956DP81Y3/mbIet0hFav9nW2xu0yXl9jjNfT4ffVyUPaOHnP6B//HK27lls0+IytQ16qP+f61Q66Fx9TvW6+m5nfSYwkf++LvuSU3AMLPOZed6v3cVDvVcf3XDMW95hfv3+ynh7bHYed17b4L5uYraX5Dmltb94T3cm3K5M/ebF7hrhjp9U6TUn9D03rYsObMjURPc9/PV42+a+h/ueZnuNQLoRMS+4/sBnKOmil77QTT3dVP99Ewvui6oyb//EXI9J+1im9g89RyN21mtt326a6OzrnyYMpkR+Bn/95j0LywPvNUf6lV1P8BiEj01wPZH7v/Ex8/ZRvPR4x96I2K6AWOkmbXqN8/q95wTOs84tnUN7wBnLnX6Jhm23TyOJkmgeAABAauzUahOUMKOHj+i4m9b+dn8nQ2U/dkacAr0blPBdIB1yCv+7L2hQnzed/70a3GYeJpBh0p+7yRlekqbc7y1u0vWSTXcGPzgQL/3Ij8NpZeukgq976cHlTfqRdd5rTCDDbIf7Guf9h91om50488qcNBPU2PzlQFCi2bzaBqbQ+Mzd70UUNGOa21XFzlG77Jo6Zziu/eO76aESJ90pIH9u1Pv6qZvuDG5B09ZkKDvpFW7deU0FJUwhurvz4ex6IoID52iMU5g36T/dII25xDTBCLxHBJvuruOY1vbt6m1n1Pp/uuGUu7SbPqeLtvzCT89UcRO1REzhPbwv/IJ3gvUMzdSBXxxX1dBu6v9n5392Zig4EssND3bTmG3HotafgHNsvhI4BuGAkXk/L+2yX7yvMc72uU0nYh6zBOnxjn0LfO9LdvvmnTgrghIGgQl0MsFmEnM1Z2SlFoSeWpFoHgAAQHrJyR+p7tu3NKu2RJs7kqFdppDv/N/0tJdkDL9AGnd7g657yhmutomO3eXS4Ku9/iqC4qX7fUOY9QRrTsQz5APeetz3dd4/qb4wFt+j2cXJ1JZowtDutilHD7eAbArG384/R1XlfkHytEo3SP1N6XrxKW1RN33lxa76tjezZUqy3OBDacxC+Ektt4XtZIIoJnDgb3+41kaG+sdav/u+7+stu8+eufuEqvpmJuj7IENTR0lr/xhVqE60njqbXhfv80V65u33pfE9km5G4x6bP0fXwDDbmaURRbZJTqgmhyPeMYuTHvfYh5zSgZhNiuKln10ITKCT2aQ/BDv5jHiaRqJ5HZH5PDTjAACgMzL9TEzNrtCK8lgdYqUn0+zCr+0QqmVhalw40yvlBQ9CnVDGSR97Y4OOBGpG+I7UhAMQRR9wXmdqc1im+UbofW2zknYRquUQ/vU9Pr+GwvsqNAXgVHdoaH71H+8Unt3tP6a1dX56pgbY0bS3+H1dbba/vIsbVGh5J52m+YZ3HN0h1Hwk3jFLs2PZSRCYAAAAANLI0Ekz3KDE0jVpVVciIdPB5PAET74wTTRMoKFX1NPKYqX7HVWa2hA+Mx4KfASCD7U10rBL7ESyTB8TpQv1QAur2SdiOsgcke8XsTJVPF5Rv4af1meuiWqmUHVaRxPWPgiwv9YXx3i6Q7PVnZa7aaYWg19jYvFp7c/uoql+8xO/H4VguuOGB7tqRMJOGRv01jZp4seiipvNXk8STHOHspPq2c8LTJhjMGCQGTfNRsI1IL5XflIjLo0OIjTo3YPO53ebvcQT45i5ItObOvbf+1LsZjrx0mObpQcWlqp04QPOWOdCYAIAAABIF73zNbK/879/Qdo8mSMZm5/OUC+/SYWp1RDoGyKUFqjpEC991z/CTULkjPtMuun80n+N/wjT3d/J0JGLAum2b4tUMU0oSuU38TB9NdhCp1PIf8lN89MDfUOEmgaYeec20S9Bg+5cUK8BftODJpuGmI4sneWKzgk1PXEfTRl8zznSllAMzClsl53WxC846V/I1PJQ3xROuul/waQ7r3H7amii74Nn7jadWPr7wn8kZvPXE0+4KYozFEmldj2hJh4v9lD/bfU66qY65p1Q6UF/P4drWHzvS6Y/CLO8XZffNCTeMYuTHvfYu0zfHbFqdcRLj2eR1myrk7L7aZhN6Sx4KgcAAADOSun5VI4z1xpP5Ug3Jiix/abIJ3QEp4GzxtxHVDq1Ro/PvkeLbFJnQI0JAAAAAGlt+z8ja0z0WkdQAmcb24zjI9KfOllQwqDGBAAAAM5K1JgAgPRAjQkAAAAAAJAyBCYAAAAAAEDKEJgAAAAAAAApQ2ACAAAAAACkTLM7vzx9umXPmQUAAADSSWZmJp1fAkAaaHZgYvv27XYKAAAA6Lg66xPnWiMwMfj+BhXUZGilGlT0gQyVfVk6Yue1tbE/c4onT2do85s2oSU+LBXd3qBNN2Vo+FPO+l5yPsvTdl5LzH1EpR8ZJu38k4pvf9gmAmgtNOUAAAAA0sZQTZ4xQzPsMHmoTU6RI3udPzXtF5RoC4ecjT9UZSdaZJYemNpP639ZTFACaCMEJgAAAIC0sVOrly7VUjOs3K7uBZOV4thEI6Y2xXVPecOUG8NpU74uFdn0ImfcN8WmmWGwTev19XBaKP1Gb3xcL2nc7Xbe/e7iruB6xn7YSzPrMe8VmhdYPq6SB7SwdKEeKLHTSanR3sV2FECrIzABAAAApKvjR1VrR4P6jihUYWF4GHN+dzundez+TobKfuyMPJ2h577jpRkmEDBFTtpN3hBsHjH4A9JKk/5ohuSM9zJp9zfokDPtLv+SNMUGDo78OLyOsnVSgQlkmPdypt85Ir3jv8a+t1mPaY7hr2fcjd76jV4XNWi7XdfuC2yQ402pzEw7o5u/fIbNQgC0OQITAAAAQDoZOtlryjFloPatL48ZmDhYtU01J+3E0V3a8u5xO9G2hnxAeuePdiLKbqfw7zb5MEEB2yfF8AsCtR+uNjMt0weEreVQdJFNS8CsZ7sfBHk6Q++oIRSYOLLOC0AYJjDij8e1+B7NLp6te5KpAWH6lii9Qfrtv4lGHEDbITABAAAApJOdq72mHEv/Kk2YpvzeNj3Cce3eXqOTqtOuqoM2LT25tSj8wdaAGHtjg47YGhCmxkTamvdvKi5+Rvr0I7rDJgFofQQmAAAAgI7o+G5t2Vip9gxL7PqHNO5jdiIJpuPJ4bYfimh+h5SmFkZQbY3UZ4SdsCLWc2ODximj5R1ytqiPCQBticAEAAAAkC5652ta6KkcU9WzYoXKD9t5acD0DfFOP9s0wxn8zi/j2fx0hnpdHV7e7xTTDXDYJh5yxoN2l0uD/dfYPilMPxHy066WVrbj40sBtL2MwsJCJzdIjnnW8/bt2+0UAAAA0HGZe9vKyko71XlkZWXZMbSOWXpgoelnIsl+KQA0GzUmAAAAACCuRbrnrRpN+HypSh+lpwmgLVBjAgAAAGclakwAQHqgxgQAAAAAAEgZAhMAAAAAACBlCEwAAAAAAICUITABAAAAAABShsAEAAAAgDNzY4Ou+5nU68NS0VMNGuv8b0qvrzuvSbCsmV/0dTth1zvYGZ3i/J9yo5fcbCVd9NKLXfVtpxj0mxez9Zu5Nh0d1rd/nq03nGP5xovn6qESm5gSGXrod9455W7TzylqNwd7CwAAAEg3vfM1bcYMTcvPsQkdxJvSEedfrfO/KUd+nKHnbsrQ5iSWDTrkvMGhKjvRYg06UHdKByLW4wUr3ELu77roBpsaP90xt6ubHgxwhAvKMQIfTSwfLswG3jNi+cj0N9wgi+eGB88Np0dvpxuQydZLD2bYBCteeqvwCuqxAwZ2XvR2Npez/dP71uun19Tpsmve052LTaL/vvHeu7GYx8Dum9jrSXBOOKpqTuloTdIPv4SDwAQAAACQVnKUP2Gg9m2vsdOdj19bwgymFkSQqRFh0osusglNKXlAC0sX6oEz+rXcFDS76sAvTAHXGT71vp5JmG4484qktRtO2WmHKSjruLds2UmNuDQqwBG9/NyuKvaXv+aY1vbtYgMNp/UZN80ZflGvAUXhAIR0UqX+vGtO6HsmyXnfz4163xbQ61R6sIumhvaHU1Cf00VbNpy0077Y6REBjkDgw4gddAkU0kPLm+BAN2nBccWKId3wYDeN2VbfaF7wvUPBEhvM8YaoAMGITPU8eDpwTMw29nDWfczbP2WnNdH5jN4xiBOwiHcMFr+vq+3+jFxPonMCLUVgAgAAAEgjQydNVc+KFSo3VQ86iqcz9NyXvdoSK2/K0G4vNS6/tkT0cmN/1iC95M0rW2cTjTelMrv85i83v5ZFiFvYNIX5Bt35Kf8XdsfcLhqwoT487YuX7hZyTeH0hN6yKS6z/i+d9sarTuuoN+aIs7xZZqgtCJdkaYxOxyzIqy5Oum/xae3P9oMRmSocelrv2m02BfX+f3Y+615v2hcv/Zm737OF9Dr9dEOmptsAgQkahAvwdfrMPDfZWU+gkF4mFbs1DqL2b9DcrvpKvxO6+m67n3wmPRBcufpuW+Ng3onQe7oBgo+Z9dtgSNE5zhemuxdscN/XfPaTWu6+1tnnlzrzszM1wpkywZD+f7br+cX7GuMHGpI9Bn4AJO45YT6zt1/MPgxtP5JCYAIAAABIF0Mna2TdW1q9006fZfo4hclNT9uJZC2+R7OLZ+ueWIXgJN0wyBSLssK//Nvq+XHT3UJunIK39e2PddP+P3u/psdd3gQyfnFa082650i/Cv767tcU+EIXbVkQ/FX+HBX72xNq+mFqWJxQ/y+Y9C7a6NekcNYxveZYKIgQEi/dCDRh+Mr4LJuYoamjpLV/jAomuIGALE1039cZTKAgoUz95tLT+qkfvAn4dv45qrL7K1KgRkZo/bZGSdlJaacNlgTX6e47E3g5prV1mTq/xGx/lkYU2fV8oZt62kUTHYNQDY4iqdSuP945gTNDYAIAAABICznKH9lP3YdP1YwZMzSjwI5Py3fmnAU+LPWyo6nQc3ymU6D3flEvPdhNxbapQuP0TBU7BXa/kGsK7+54KEhgahFkBwr+CZY3BWhTGDbr/3OmvhJsOhGqKVAvzfGbHgSaeLjNDrp7TSrcYIIJSDjpbiHbLO/VGOg5voctXNvx352jZ2KmmwK285o53bS/zHuPnwabncQVbFriDDGCDr4bHuyqEdndnM9p9kV3Ox7df0Okb/+8uwZs8JtmRDdHieUcFZvgh7O8t//92iOntNav2WEGPwCR4BiEa4+8r8JAerxzBS1HYAIAAABIC7UqX7FUS5faYVONjm9/S0tXlDtzzgKm48xeDRpintLhDFPasY+JZ/ae1tENJ71aBk7h/Py+XseYsdODwQGv8F5lCvJugdw02fCCEuGq/PGXN7++H912yisgzztpf913X5SEDPXPth14mr4Wdr7vbefi97V8Z5b6j/CaFvjvawr1R00B/1MndUPMdL+mgN8pqFfLwNOgt7bJNqMIMp2InqPCJAvmwWYil11zXFV1puNKrybJ98qj++QI27/X25emVkVip7Vxp8I1L+aeo4lOWpWzne8ezNKYSxp38tncYxDvXEnsDj1SWqrSR++w04iWOXz4cCU7AAAAAMCZGnx/uONLt7PL+730lS9J4253pp1hkzPebuad0PJ+tgbBi6bzRNuHQLz0eExBONv8ou6/JsaTOQKeufuE9oeW7aGJB0946494IoTtC8J932BHk92lMptuCtR9bV8LzlDct16lsZppNMkGINymGd2kbeEaCs/cXR/xHt7natCdC0znnP42hTut9DrK7K4Rsk09AjVKYnL2tal94NWmCK/HDVjY9RfW1Af67Yjte186LvnbY5pg2ICLSQ/va2ew2xP3GLjNQeyybmeXtnlMc88J18MqN82z+g7SLC8BUTIKCwuT7pXDBCe2b99upwAAAICOy9zbVlZW2qnOIyvL/5UbQLqY9V8LdVu/N1V8+8M2BUEEJgAAAHBWIjDRtkytiCkX2ImA3S9laGVzO7gEOizTjOOjGla3Xo/PvkeLbCoiEZgAAABA+srM0dAxI9Svq50+UaOqLTtVG79/vaQRmACA9JBWgYlp31mgb4zZrB/ddJ9W2LSgW+YtUdH+H2nO/bHmAgAAoO1laeCE6ZoyrIedjuPYHq1euVp7jtnpZuiRN0WXFwyUG4vomasRAyPf69i+KlW7Dc1PaN+m17WysgVv4iAwAQDpIbVP5bjtJ1ry1L2aZidX3D9HM0NBiWm696kl+slt7gQApLlb9JMlS7Rk3i12OsqV92qBMz/98zTyXgCJdfvgdbph2jiNyBuReCiYouuvndyix1zmjh6v0f56ooISRo+B/vuM1vjRuTYVANBR8bhQAGg1darrX6R7r7STAbfMnKhsOw4AHVlOThM1JYLO7aFudrQ5qpY+psfm/1q//nUTw3xnuaVNPqcPAJDmUtaUw222MTl8m17x/EwtOt9JG1CmmXOlnywp0Ug7T7Vr3eYdo6KacpimHSV57qjqVtPEA0AqmRoT43Vw9SCN1aOR+ZGpLXGrtPnARPX920x97XEvOV4eZtLHB5Zza5dduMHJG+fbBJ95zyIdfH6zxn7CBj5sfhl6d/Pec8NBkYi8MmJehRbP3KDxMfJeclYAQQOn3awbJiSoB2H6fvB/+qrdoGd+/Zr22cnkDdQVN9+g8U1Vt2jx+j005QCA9JCyGhNus43nK7wb35mBG3DXfH1t5o+0ttYLWISbd4SZwEaJFmum89qZzrKbx3yDqscAUm7H/WXaO3mWgg06TG0JbVmuHXbaaL08LFsTp0uPuuuZqcUHJuoboeYkt+gncydqr8lHG72PmTdWm+f5877m5LxN570AOoCcybrh/35VX/1qrOGLmmEDom2hvnq1nn3kGW1w8pHWcUq1O/fJ7UHi2D7tc/uVqFdNda0zB2nlxgZd9zOp14eloqcaNNb53y7s+w12Rqc4/6fc6CU3X4Ye+l22fjNX+vbPs/XGz1u7mJSp37zorNcZXnoww6a1jNk+s44bHjxXb/yui26w6UBH1kGbctyiWZOltUv8Xw9XaPmWOg063++tAgBSZb42VI5U0Xf8/OgWjc+rUFlEja7WzMPqtPaJcABh/pK1qssb77yDCX4UaWTl4kDgd4XuW16hkReaudt0sDZbfUPVIwB0GrVbtGVPvZ2Icnibtuy1463gWPVO1di3MkGJ559dKV328aZrOiStTlVvblCNGT2wQa9sMxGPfVq3rMqZ01kN1eQZMzQjNEx2UjqQN6Ujzr9a5397O+S88aFWaNlTVXNKR2sClcrndnUDCt5wrh4qsenNclqfuaZOP93QeiG1Z/aelg6e1jN2GujIOnAfE9maOHeJlpjO5pzBNAvJHjDKzgOA1DHBAY2Z7nbsa4IDg1YvUnQjjDbLw5btULDMUbd/mx2zKg6qrv8wZ9tW6L6bFkuf8N6fGmdAZ1KrdYt+rzd2RwUnDr+jF37/iqpa9gCLGE6p5p2levo3r2jrDj8ocbOuT9TMA0mq0aalS7XUHVZrp03tiMb+rEFjv96g657yBr8mRa9AmhlMjQe39sP9DW7Nh+vu917r1sJwX2Gn7fJJ1cgoeUALSxfqgRYFEqySLnqpKFNrf1Gny64xw3u607l8Gm7Nihi1IOKlx+PWfGi0vKlh0VUPhea1NCACdAwdODBh2kP7VZDt0Kj9NQCkwLL7VHZgombdZmpG7I2qLeFrozzsymEaVHtQfjiiUbBjZF9lH9hha1iYphvmvU2AYkHMTjsBdFCnayKDE60elDCyNHTa9fqXQVVaupigxFnv6Qw992WvtsTKmzK020t1jevnzHPSytZJwy7x0o782Evz0wu+7qXrAunQo87rL2hQnzed/70a3MCECWSYafc1zvxhN9qAxZtSmX2/zV/O0OYW19Ro0J2fqtNn5knP3P2err7bqzFxwyVdpA31oWBEyNyuKtZxG6w4rv3ju3mBg3jp8ZR00ef6nbDLH9OWUcHlz9EY1bvzfrpBGnOJF7T43pfqvO2b57zuS6ZTF6Dj66CBCa+qdEm8x/IBQIrN/1uFRn6iRCMrN8SoLZE4D9u2v842tzBu0U8+kai9RbYmzvSXnaZ7b/X6szCBhxVvblZdXkmgNoQzf/pIVfwteoto1gF0SjY4sfSt1/RsqwclrMwcjfv4Z3TjnNsISrSqfirwm3JM6lANOWJ654/e/yN7pV79vHG/bwhT+6HoIptmHMnQLhNccP5vetpLMoZ8QBp8ta0xcbsXrGjS4ns0u3i27okOKjTDiH5Z2r+38bMCvp1/jqrK/aDAaZVukPqPiJ8ejwl89Bza3daK6KGJEY/wOqnlNkASDJYAnVFqAxOPL9JaTdQ3YlYjtm2hTTXjp+51q0QHzZ/7I63tXxKqBr1kCb/2AUgjJn+rrQv0IxEpUR624v4yVeT588Zrg+koOC7nPfaPt8t+QxMPLA4/dWPZfZozb60G2eYaZn7f5X5nw+aJHuH0sVt+ZNMT570AOpjTNdq6ZoP2tEVQwpfZTf36N+MRomjCTq0ONeN4S9t7FGhyx49NNDL2xgYdeSlcYyIZ7zwarmXh185oDwMGnVlnlU05uuGYrTER2VQEOJuk7HGhAIAzZR8XOm+O7ltmkwCgjeVMuVE3T/Z/9m7C4XV6+sk3vM4rm8V/XOgxbVi0Wv1mXaGhO1/TC0em6Nr8fXptUY0mzxqvHp3+caGmI8yROrpyhcoP26QkpNPjQk2/EKaZh9vEwjy5Iz9Dz30nMt2MD/tHhsrelopulFZ+WSr4mbTJ/H+qQdtvypDub1BBjbPMj731JsX0MfH5D+gfvzyDWhOm48siqfSaE/qeTTJMvxBfMU0w3KYUXn8QB37xnt66JHa6H2wwr/uc6sO1H8z6Lz2tn37q/ahOLM1ru2hj1PsCnVUH7mMCAAAA7a121StavfuY6o/XJx6O7tG6ZatbEJQw6nXsPfO/h8aboIQZHXqFrs3vZkZ0hQlKmLSTzvuY/51K8KkcBU7pvHlBiY5i1z+kcbd7TTPkjDdl93cydOQi25TDDPfbGW1t3gn9dEOmim3nlH4nlKZpRan8JhjdpTIv+BAv3e1E00n7yvgs9RzfI7Qes/7Sg930ldD6u+rb7hsDZxdqTABAh0WNCQCdWI8RmnL5hRp4jp2OdnKf3nlrpdwniLZQ+teYaJl0qjEBAMkgMAEAAICzEoEJAEgPNOUAAAAAAAApQ2ACAAAAAACkDIEJAAAAAACQMgQmAAAAAABAyhCYAAAAAAAAKUNgAgAAAAAApAyBCQAAAAABs/TAwlKVli7UAyU2CQDaUEZhYWGDHW+Sedbz9u3b7VTLmHUAQHs707wrFvIzAG2pLfItRDL5eGVlpZ1KJznKnzZVw7ub8RptWrpaO9305GRlZdmxMzT3EZWOLVfx7Q/bBABoG+0emAAAAADSQXoGJrygRM+KpVrdnGhEQKsFJkoe0MKr92o2gQkAbYymHAAAAEC66D1EA49tanFQotX1HaRZdhQA2gqBCQAAACBd9Oqp7uql/GkzNGOGGSZrqJ3V7hbfo9m/lW6grwkAbYzABAAAAJBO+g+U1i/V0qVL9db27hqZn2NntDPTlOPT0jPFs3XPYpsGAG2AwAQAAACQLo4c1fEDFSo/7E3mZHfX8SO13kQqHNyrRXYUANoKgQkAAAAgXRwu11/rRtpmHDNUoDTqbwIA2giBCQAAACCN1JavcJtxuMOaFEYlRvRTth0FgLZEYAIAAABAwCw9sLBUpR/pp/Uv8ahQAG0vo7CwsMGON8k863n79u12CgAAAOi4zL1tZWWlneo8srKy7BgAdAzUmAAAAAAAAClDYAIAAAAAAKQMgQkAAAAAAJAyBCYAAAAAAEDKEJgAAAAAOjX7lI3ShXqgxCYBQBrhqRwAAAA4K6XlUzmGTtaMgn52wlOzaalW77QTSYj7VI65j6h0bLmKb+cRoADSCzUmAAAAgHSxc7WWLl1qh7e0/fhxHT1i552pqhrV2VEASCcEJgAAAIB0NHSMhh+rUPlhO90a+g7SLDsKAOmCwAQAAADSV2aOhuaP1/gJdsgfqpyz4g42R/kju2v735vRhqMpi+/R7N9KN9DXBIA0Qx8TAJCWpunep26Xnpij+5bZpFY27TsLdLse1Zz7V9iUzugW/WTJeG2Y+TXNtykAzlSWBk6YrinDetjpOI7t0eqVq7XnmJ1uhh55U3R5wUB1NRM9czViYOR7HdtXpeqjZuyE9m16XSsrW/AmjrTsY8Jn+po4710tXdP8wETcPiZKHtDCT0vPzL5Hi2wSAKSDzhdvvu0nWvLUvc4t/ZkyhYIl+sltdhIAEjIF4CVaEjEs0L1X2tlIgPwW6Ei6ffA63TBtnEbkjUg8FEzR9ddOVo59XXPkjh6v0f56ooISRo+B/vuM1vjRuTa1M2mD2hK+g3sJSgBIOzTlAIBWU6HFM2dqpj/M26yxc5dowXfOPFQKAOkiJ6eJmhJB5/ZQNzvaHFVLH9Nj83+tX/+6iWG+s9zSKvuqziMn/4Ot37cEAKSxlDflMFWJvzE525uoXasf3XSfTKXiW+YtUUmel+zd7NtquFfeqwVz+6rseankEyPduXWrf+RWRY5Yl6Pi+Zn62uNR71G5WDPnehV6zXsU7V+szWNKNNEN5/vvY375LJG3dkdguwAgtjhNBvw8y6ZH5G1ReUswr6pbbfKmokBTjqh8KZCXGcH1+nliI+62TJT7Ds57L94yVkWBphzx8srGIrfFz2sj1u8IbkdL8tvYn6nxfjbLjf+b3QY77b+u4vnF0ieCyyfej0CnkDNZN9w0RQNj/vxUr62lj2npGbReGDjtZt0wIUE9iNPO4L937QY98+vXtM9OJm+grrj5Bo1vqrpFi9fvSeumHGeAx4UC6GhSWmPCvQkes1k/sr8uLt4STi/p79yc+r86miBERPOMkSq5cIP9RXKtNPl2t7r0ivvnOMtWeDe2zjz3JvW2n0S+h0oifr3Mnmxu/O28Sme9825xUufrazN/pLW13g33TIISAFpq2XJtrh2p8W4zhVs03smF3LzL5DGaqNv9/Cgqr3pURbYAb5imDiUa5BTOvddG5mVunhla78zYQQlTIJ87VpvnecvMfEIqCgRym8orw7yCvUzeaJZ18uCDfvrcidrrpzufb/OYb0Q0z2hOfhv5mRqvK57ofbHhwkAQoon9CHQatVu0ZU+9nYhyeJu27LXjbaC+erWefeQZbXC+063jlGp37pPbg8Sxfdrn9itRr5rqWmcOkjdLDywsVelH+mn9SwQlAKSfFAYmpmn6GGntE+FC//z7zfgtmjU5Ml2PL3Ju4MdqeqitdoUW+79wuTf92eobvvMMcG5Cp49UxfLAe/ytQtkDRtkp8yvco6GO5cw89R8WCIAAwJlaoR0H7KgphId+nV+h5Vv8p8k3zqtW3P+oW1h33TZLE51c8NFAwGH+krXSmOlufrXiXaeU0UTeNe07RRpZWRbuSHPZfXp0dfz3j84rQ24b76xncah2glnPfW7NNLP+QLqzpvuWV2jkhSb44Ek+v7XXgSWR+2rQ+U3lztGvc95n7mLnimE1sR+BzqNW6xb9Xm/sjgpOHH5HL/z+FVW1rJ/ImI5V71SNfRsTlHj+2ZXSZR9vuqZD0upU9eYG1ZjRAxv0yjaTMe7TumVVzhwkb5HumV2s4uLZumexTQKANJLCwMQo9c3Zqx0xe5uPTjc39vGCD8Gb/thGfiLQGZ1p/hHvZrjiIBc5AK1smob1r9NBWzo2v+j7+VGw6Zm5+faXienAjlDQwLVsh/bm9HVyUsfjX9OPtozVN8x6E3T+W7d/mx2LLZm8ctr5g+Kup1G6yVNbnN9ma+Lc8PaYfRUzUNJIvOuKlWg/Ap3J6ZrI4EQbBCVMbYaad5bq6d+8oq07/KDEzbo+UTMPAABiSGlTDmmQhsXssT46PfLGvnnqtNavuuwPNM0A0F7cX+k3a7lTWDZBiW8MKAvlRT8K1VgwooOvJnhrR43oAv6VwzSo9qD8UIDblM2s0wQo3CYSjUUX7EcNiAyMJJtXxgsQNEof2VfZ0YGApEV1JGqGpPqCiLp+mP1kR11N7EegU7HBiaVvvaZnWz0oYWRp6LTr9S+DqrR0MUEJAEDLpTAwMV8bKrM18dbwr3u3fMeMN04P3tg3j6n+q8h1AUB7MY8v/sSgUNM0EwgI1yowzdn8wIDXVGHk9HBe5TaNsON6fIMqcgL9UThumTlR2rK8UaE/XrOOFW9uVl1eUfjxpVfeq6JQB8PJ55XeekrC/T0467nXGW+U7qzJbR7yt2SCCdHMdcDvgyLaNh0M9dnhcPZxuKNke/2YGX6d2U+h8Esz9iPQaZyu0dY1G7Sn1YMSVmaOxn38M7pxzm0EJQAALZbSGhPz587U4gMTverHzlAywPtlLTp9yfSDyT8Vw+2PwnutuUE2vyJGrMumN822jzZVmxNUjQaAMKcwHchr3Lxrpv9UDZO3Ldbeyd+w829X3wPhGhPRedXtKgv3MWH6ppgZfK15wkX4iRfB5iFLPiEtjpVfLrtPc57fG24ecatUFqixkXReadYzb60G+c0+5o41lRsapy/5hvouDz8pI7HG+e38uT/S2v4loW1ZsmSBDaoEljXpF27Q4kCH+tGvG/+3QB8TTexHAC2U2U39+jfjEaIAAERJ+eNCAQAA0HHkTLlRN0/uZ6eacHidnn7yDa/zymbxHxd6TBsWrVa/WVdo6M7X9MKRKbo2f59eW1SjybPGqwePC40p7uNCASBNpbiPCQAAAHQktate0erdx1R/vD7xcHSP1i1b3YKghFGvY++Z/z003gQlzOjQK3RtfjczoitMUMKknXTex/wHAHRo1JgAAABA+ukxQlMuv1ADz7HT0U7u0ztvrZT7BNEWosYEAKQHAhMAAAA4KxGYAID0QFMOAAAAAACQMgQmAAAAAABAyhCYAAAAAAAAKUNgAgAAAAAApAyBCQAAAAAAkDIEJgAAAAAAQMq0++NCzToAoL21xaOOyc8AtCUe0d72eFwoAKSHdg9MAAAAAOmAwAQApAeacgAAAAAAgJQhMAEAAAAAAFKGwAQAAAAAAEgZAhMAAAAAACBlCEwAAAAAAICUITABAAAAAABShsAEAAAAAABIGQITAAAAAAAgZQhMAAAAAACAlCEwAQAAAAAAUobABAAAAAAASBkCEwAAAAAAIGUyCgsLG+x4k4YPH67t27fbKQBAjx49NGDAAPd/RkaGTQWA5mtoaNCxY8e0f/9+9z/anrm3raystFOdR1ZWlh0DgI6BwAQAtJAJRgwZMkTvvvuujh49qlOnTtk5ANB8pjDZs2dPnX/++dq1axfBiXZAYAIA0gNNOQCghUxNid27d+vw4cMEJQCcMZOPmPzEBDtN/gIAwNmCwAQAtJCpMVFXV2enAKB1mBpYJn8BAOBsQWACAFrI9ClBTQkArc3kK/RZE5CZo6H54zV+gh3yhyqHO1gA6FRS2sfELfOWqESLNXPufJsCAB1Hfn6+Nm7caKcAoPU492cqLy+3U+kmSwMnTNeUYU3U6ji2R6tXrtaeFnSV0SNvii4vGKiuZqJnrkYMjHyvY/uqVH3UjJ3Qvk2va2Vly/rjoI8JAEgPdH4JAC1EYAJAW0nnwES3D16vL15+np1qQvVK/XrhatXayWSNmPFFXTu6m51KrH7rC3psaZWdah4CEwCQHghMAEALEZjoYAZM0qxrJ2mQ+xOstXeNXtx8VDWbN4veQpBO0jkwMXDazbphQo6dakLtBj3z69e0z042R7eeOerWVJON0/WqPVpvJ5qPwAQApIeUN+Uo2v8jzbl/hR1fq72TJ2qkmVlpmnhIP1lSEpj2m3zcEk531K321uFzm4jkeeMVzy+WPjFeG2Z+Te6rr7xXC+ZOVLY3V4v9dABoJgITHckkffPx72r6IDvpq1ikH+6/VLP2Pqz/+Pl6ghNIGx06MHHaGfyAQosDEwN1xc03aHxT8Y8zCHwYBCYAID2kVddB2ZP7asPMmZo5c7Eq8kq0ZIkJKISnf3KbXfC28dLzJt0Z5q2VJt+ue6/0Zk37zgKv3wr3dTO14cJwAMMNaMwdq83z7Gufl0qeulfT7FwAQGc1QcOigxIhPTXq2v9H//WlCTZoHcdV39XC0ofkX4qAtJUzWTf836/qq1+NNXxRM+yPN22hvnq1nn3kGW1obtuNuE6pduc+uT1IHNunfW6/EvWqqa515gAAOou0CkzUrV5kay/M14bKxtODzrchhMe/pq897o1q2XJtDl38btGsydLaJeE6EPPnLlaFHZ/2nSKNrCzTfctswuMbVJHTV6PsJADg7HPi+FGdeE8aVvRN/cfNYxMHJ4COoHaLtuyJ07zh8DZt2WvHW8Gx6p2qsW9lghLPP7tSuuzjTdd0SFqdqt7coBozemCDXtlmbvr2ad2yKmo4AUAn0kEftjRN9z61REuWmOEbmhhx8durHX7gIRa3Job/WlObYpCG2doWAICzzNBJml67Wn8q+5MzvKkdGq5+dhbQcdVq3aLf643dUcGJw+/ohd+/oqqWPcAihlOqeWepnv7NK9q6ww9K3Kzrk+1/AgAAqwMGJkxQ4hvqu9w2x5j5I62NqC4YFWi4cpiTEmb6o/CbeXjDnHANCgDA2aXrMF16bbGK/WHGpc2oRXebHiotVak/PBzVyMNt+mHnLfiubrt3oRbeO93OdF79cOC18ZqI+M1HPv9QeNnA+5h1LLz3Nn13QZz1NLEN6MRO10QGJ1o9KGFkaei06/Uvg6q0dDFBCQBAy3XAwMQo9c2p00G/fcaV0zU2dA00TT6yNXHmLXZaumWm39GltOLNzRH9UQAA0DLT9d0Fs3Teqh+quLjYHRZpVqDQf5se+nq+yn/szSv+pfTRi8ONRKbfu1CzBqzRD+1rixdLsxZ811lrLKM0a/wG+z4/1JoBwfeRsi/+qPRLbz2LKpxlQ4GLxNuAs4ANTix96zU92+pBCSszR+M+/hndOOc2ghIAgBbrgIGJ+fra83s1ca5tjnFrX+0N1JiYP/dHWts/3Fxj/N/CfUxo2X2aE3ytGeaFgxgAACTl87M0SWv0yH3LbYL0+OI10tjpbnBh+r0f1aiKP+m7r3rz9Op39cgqv0X8bZp1sbTml99V6NW/XOSsLV/Tr7LTEbZp0R1+x0rLnXVuU7Z9H6Nu1SOh93l8wzZpwLAktgFnjdM12rpmg/a0RVDCl9lN/fr3sBMAADRfSgMT8+fODD3mMzhuJJx+/Gvhphg3fU1fuynYHGOF7rsp3FTjaxXDNKj2oHNbZwVfa4bQI0gBAGiG/TvCgQXj1R3aE+hQuW5/6MoTwx7t8AMGruXasT9bfcOPkYqv4mD8Tv+i5iXeBqBl6k+8b8eS0HDqDJ+e0UXq6gxGRhdld+3mjnbp6s4BAHQSHbTzy2RN0723TpS2LFc4xAEAQCuwNRNCrhqm8wKB8OwBkb1VjBoQbEZxnoZF1I6YrmEDAs0UExnZV9nRQZE4Em8D0DK1q17R6t3HVH+8PvFwdI/WLVvtPVGj2ep17D3zv4fGz7pCQ83o0Ct0bb4JTAzVFbPGO3McJ533Mf8BAB1apwtM3DIv0EzDPLHjwOKImhcAAJyxX27QtpxJ+rdgZ5Ylk6TNy92AwfI3ylU38qP6rh98uOq7+mioNsTj2lCRrUmfD/Qp4TYNKddyU4vC7/DSm+MYpY8G+64oGaVtG/ymHfEl3gbgDJzeo5V/eFyP/fKxxMP8Z/XGjpaGDWq1+oUXtHprlaoq4wxbV+t/S1c6SwIAOrpOF5gwTT5oqgEAaFuP687iRdpz8TdDT8v46P4farbf58Sr39XsxXs06ev2iRifl/4U6N/h8TuKtWj/JH3Tf2LGVQf1wzmBPicibFO5/s2+j9fh5p2/tLMSaWIbgLR3rEorl76gF0rjDEtXahtRCQDoFDIKCwsb7HiThg8fru3bt9spADi75efna+PGjXYK6a1YDyy8XROaaMlwYvNTuu6bC+1U6zKP9hy/oTi5oILP1J74el/9qfhONV1Homkt2gakhHN/pvLycjuFtmLubSsrK+1U55GVlWXHAKBj6OR9TAAAYJTqv+aVav3ft2lbvGFdqR7+XtsEJfT5hzRr5DZtSGVAIB22AQAAIAZqTABAC1FjAnG5NR0mKVxBo05rfjw7/OjOZJ1JjYnW2gakBDUm2gc1JgAgPRCYAIAWIjABoK0QmGgfBCYAID3QlAMAWqihoYGbPwCtzuQrJn8BAOBsQWACAFro2LFjys5uojdFAGimnj17uvkLAABnCwITANBC+/fv1+DBg9W7d29qTgA4YyYfMfnJ+eef7+YvAACcLdq9jwmzDgBob23VP06PHj00YMAA939GRoZNBYDmM803TE0JE5SgxkT7oI8JAEgPdH4JAACAsxKBCQBIDzTlAAAAAAAAKUNgAgAAAAAApAyBCQAAAAAAkDIEJgAAAAAAQMoQmAAAAAAAAClDYAIAAAAAAKQMgQkAAAAAAJAyBCYAAAAAAEDKEJgAAAAAAAApQ2ACAAAAAACkDIEJAAAAAACQMgQmAAAAAABAyhCYAAAAAAAAKUNgAgAAAAAApAyBCQAAAAAAkDIEJgAAAAAAQMoQmAAAAAAAAClDYAIAAAAAAKQMgQkAAAAAAJAyBCYAAAAAAEDKEJgAAAAAAAApQ2ACAAAAAACkDIEJAAAAAACQMgQmAAAAAABAyhCYAAAAAAAAKUNgAgAAAAAApAyBCQAAAAAAkDIEJgAAAAAAQMoQmAAAAAAAAClDYAIAAAAAAKQMgQkAAAAAAJAyBCYAAAAAAEDKEJgAAAAAAAApQ2ACAAAAAACkDIEJAAAAAACQMgQmAAAAAABAyhCYAAAAAAAAKUNgAgAAAAAApAyBCQAAAAAAkDIEJgAAAAAAQMoQmAAAAAAAAClDYAIAAAAAAKQMgQkAAAAAAJAyBCYAAAAAAEDKEJgAAAAAAAApQ2ACAAAAAACkDIEJAAAAAACQMgQmAAAAAABAyhCYAAAAAAAAKUNgAgAAAAAApAyBCQAAAAAAkDIEJgAAAAAAQMoQmAAAAAAAAClDYAIAAAAAAKQMgQkAAAAAAJAyBCYAAAAAAEDKEJgAAAAAAAApQ2ACAAAAAACkDIEJAAAAAACQMgQmAAAAAABAyhCYAAAAAAAAKUNgAgAAAAAApAyBCQAAAAAAkCLS/w9rwJlaDwxlEwAAAABJRU5ErkJggg==;" vertex="1" parent="1">
          <mxGeometry x="-450" y="220" width="762" height="228.89" as="geometry" />
        </mxCell>
        <mxCell id="ecZa3-H5GdRH_xH1U8v8-26" value="" style="shape=flexArrow;endArrow=classic;html=1;rounded=0;strokeColor=#FF5521;shadow=0;fillColor=#45DAFF;" edge="1" parent="1">
          <mxGeometry width="50" height="50" relative="1" as="geometry">
            <mxPoint x="-320" y="490" as="sourcePoint" />
            <mxPoint x="-260" y="282.5" as="targetPoint" />
          </mxGeometry>
        </mxCell>
        <mxCell id="ecZa3-H5GdRH_xH1U8v8-28" value="Enviar o Token gerado no login" style="text;html=1;align=center;verticalAlign=middle;resizable=0;points=[];autosize=1;strokeColor=none;fillColor=none;" vertex="1" parent="1">
          <mxGeometry x="-365" y="488" width="190" height="30" as="geometry" />
        </mxCell>
      </root>
    </mxGraphModel>
  </diagram>
</mxfile>
